<svg xmlns="http://www.w3.org/2000/svg" xmlns:xlink="http://www.w3.org/1999/xlink" width="1920" zoomAndPan="magnify" viewBox="0 0 1440 809.999993" height="1080" preserveAspectRatio="xMidYMid meet" version="1.0"><defs><clipPath id="e2e319f66c"><path d="M 726 60.75 L 852 60.75 L 852 186 L 726 186 Z M 726 60.75 " clip-rule="nonzero"/></clipPath><clipPath id="7b6f14163c"><path d="M 863 248 L 989.125 248 L 989.125 374 L 863 374 Z M 863 248 " clip-rule="nonzero"/></clipPath><clipPath id="efd7844384"><path d="M 450.625 436 L 577 436 L 577 562 L 450.625 562 Z M 450.625 436 " clip-rule="nonzero"/></clipPath><clipPath id="466e584b8c"><path d="M 588 624 L 714 624 L 714 749.25 L 588 749.25 Z M 588 624 " clip-rule="nonzero"/></clipPath><clipPath id="7f34bdbf0d"><path d="M 863 624 L 989.125 624 L 989.125 749.25 L 863 749.25 Z M 863 624 " clip-rule="nonzero"/></clipPath></defs><path fill="#fefefe" d="M 740.539062 162.636719 L 668.121094 251.152344 C 676.535156 253.542969 684.15625 257.609375 690.742188 263.03125 L 759.804688 178.609375 C 760.445312 178.945312 761.132812 179.195312 761.78125 179.511719 C 753.484375 175.503906 746.296875 169.722656 740.539062 162.636719 Z M 740.539062 162.636719 " fill-opacity="1" fill-rule="nonzero"/><path fill="#fefefe" d="M 909.574219 251.164062 L 837.15625 162.648438 C 831.382812 169.722656 824.210938 175.515625 815.910156 179.535156 C 816.5625 179.222656 817.238281 178.972656 817.890625 178.632812 L 886.953125 263.054688 C 893.535156 257.609375 901.160156 253.554688 909.574219 251.164062 Z M 909.574219 251.164062 " fill-opacity="1" fill-rule="nonzero"/><path fill="#fefefe" d="M 771.871094 438.9375 L 699.453125 350.421875 C 693.683594 357.492188 686.511719 363.289062 678.210938 367.308594 C 678.863281 366.996094 679.539062 366.746094 680.191406 366.40625 L 749.253906 450.828125 C 755.835938 445.382812 763.460938 441.328125 771.871094 438.9375 Z M 771.871094 438.9375 " fill-opacity="1" fill-rule="nonzero"/><path fill="#fefefe" d="M 602.839844 350.40625 L 530.421875 438.925781 C 538.835938 441.316406 546.457031 445.382812 553.042969 450.804688 L 622.105469 366.382812 C 622.742188 366.71875 623.433594 366.96875 624.082031 367.28125 C 615.785156 363.277344 608.597656 357.492188 602.839844 350.40625 Z M 602.839844 350.40625 " fill-opacity="1" fill-rule="nonzero"/><path fill="#fefefe" d="M 740.539062 538.179688 L 668.121094 626.695312 C 676.535156 629.089844 684.15625 633.15625 690.742188 638.578125 L 759.804688 554.152344 C 760.445312 554.492188 761.132812 554.742188 761.78125 555.054688 C 753.484375 551.050781 746.296875 545.265625 740.539062 538.179688 Z M 740.539062 538.179688 " fill-opacity="1" fill-rule="nonzero"/><path fill="#fefefe" d="M 909.574219 626.710938 L 837.15625 538.195312 C 831.382812 545.265625 824.210938 551.0625 815.910156 555.082031 C 816.5625 554.765625 817.238281 554.515625 817.890625 554.179688 L 886.953125 638.601562 C 893.535156 633.15625 901.160156 629.101562 909.574219 626.710938 Z M 909.574219 626.710938 " fill-opacity="1" fill-rule="nonzero"/><g clip-path="url(#e2e319f66c)"><path fill="#fefefe" d="M 851.4375 123.339844 C 851.4375 125.390625 851.335938 127.4375 851.136719 129.476562 C 850.9375 131.515625 850.636719 133.542969 850.234375 135.550781 C 849.835938 137.5625 849.339844 139.546875 848.742188 141.511719 C 848.148438 143.472656 847.457031 145.398438 846.671875 147.292969 C 845.890625 149.1875 845.015625 151.039062 844.046875 152.847656 C 843.082031 154.652344 842.027344 156.410156 840.890625 158.113281 C 839.75 159.820312 838.53125 161.464844 837.230469 163.046875 C 835.929688 164.632812 834.554688 166.148438 833.105469 167.597656 C 831.65625 169.050781 830.140625 170.425781 828.554688 171.722656 C 826.96875 173.023438 825.324219 174.246094 823.621094 175.382812 C 821.917969 176.523438 820.160156 177.574219 818.351562 178.542969 C 816.542969 179.507812 814.695312 180.382812 812.800781 181.167969 C 810.90625 181.953125 808.976562 182.640625 807.015625 183.238281 C 805.054688 183.832031 803.070312 184.328125 801.058594 184.730469 C 799.046875 185.128906 797.023438 185.429688 794.980469 185.628906 C 792.941406 185.832031 790.898438 185.933594 788.847656 185.933594 C 786.796875 185.933594 784.753906 185.832031 782.710938 185.628906 C 780.671875 185.429688 778.648438 185.128906 776.636719 184.730469 C 774.625 184.328125 772.640625 183.832031 770.679688 183.238281 C 768.714844 182.640625 766.789062 181.953125 764.894531 181.167969 C 763 180.382812 761.148438 179.507812 759.34375 178.542969 C 757.535156 177.574219 755.777344 176.523438 754.074219 175.382812 C 752.371094 174.246094 750.726562 173.023438 749.140625 171.722656 C 747.554688 170.425781 746.039062 169.050781 744.589844 167.597656 C 743.140625 166.148438 741.765625 164.632812 740.464844 163.046875 C 739.164062 161.464844 737.945312 159.820312 736.804688 158.113281 C 735.667969 156.410156 734.613281 154.652344 733.648438 152.847656 C 732.679688 151.039062 731.804688 149.1875 731.019531 147.292969 C 730.238281 145.398438 729.546875 143.472656 728.953125 141.511719 C 728.355469 139.546875 727.859375 137.5625 727.460938 135.550781 C 727.058594 133.542969 726.757812 131.515625 726.558594 129.476562 C 726.355469 127.4375 726.257812 125.390625 726.257812 123.339844 C 726.257812 121.289062 726.355469 119.246094 726.558594 117.207031 C 726.757812 115.164062 727.058594 113.140625 727.460938 111.128906 C 727.859375 109.121094 728.355469 107.132812 728.953125 105.171875 C 729.546875 103.210938 730.238281 101.28125 731.019531 99.386719 C 731.804688 97.496094 732.679688 95.644531 733.648438 93.835938 C 734.613281 92.027344 735.667969 90.273438 736.804688 88.566406 C 737.945312 86.863281 739.164062 85.21875 740.464844 83.632812 C 741.765625 82.050781 743.140625 80.53125 744.589844 79.082031 C 746.039062 77.632812 747.554688 76.257812 749.140625 74.957031 C 750.726562 73.65625 752.371094 72.4375 754.074219 71.296875 C 755.777344 70.160156 757.535156 69.105469 759.34375 68.140625 C 761.148438 67.175781 763 66.300781 764.894531 65.515625 C 766.789062 64.730469 768.714844 64.039062 770.679688 63.445312 C 772.640625 62.851562 774.625 62.351562 776.636719 61.953125 C 778.648438 61.554688 780.671875 61.253906 782.710938 61.050781 C 784.753906 60.851562 786.796875 60.75 788.847656 60.75 C 790.898438 60.75 792.941406 60.851562 794.980469 61.050781 C 797.023438 61.253906 799.046875 61.554688 801.058594 61.953125 C 803.070312 62.351562 805.054688 62.851562 807.015625 63.445312 C 808.976562 64.039062 810.90625 64.730469 812.800781 65.515625 C 814.695312 66.300781 816.542969 67.175781 818.351562 68.140625 C 820.160156 69.105469 821.917969 70.160156 823.621094 71.296875 C 825.324219 72.4375 826.96875 73.65625 828.554688 74.957031 C 830.140625 76.257812 831.65625 77.632812 833.105469 79.082031 C 834.554688 80.53125 835.929688 82.050781 837.230469 83.632812 C 838.53125 85.21875 839.75 86.863281 840.890625 88.566406 C 842.027344 90.273438 843.082031 92.027344 844.046875 93.835938 C 845.015625 95.644531 845.890625 97.496094 846.671875 99.386719 C 847.457031 101.28125 848.148438 103.210938 848.742188 105.171875 C 849.339844 107.132812 849.835938 109.121094 850.234375 111.128906 C 850.636719 113.140625 850.9375 115.164062 851.136719 117.207031 C 851.335938 119.246094 851.4375 121.289062 851.4375 123.339844 Z M 851.4375 123.339844 " fill-opacity="1" fill-rule="nonzero"/></g><path fill="#ffffff" d="M 713.738281 311.113281 C 713.738281 313.164062 713.636719 315.207031 713.4375 317.25 C 713.234375 319.289062 712.933594 321.3125 712.535156 323.324219 C 712.136719 325.335938 711.636719 327.320312 711.042969 329.28125 C 710.449219 331.246094 709.757812 333.171875 708.972656 335.066406 C 708.1875 336.960938 707.3125 338.8125 706.347656 340.617188 C 705.382812 342.425781 704.328125 344.183594 703.191406 345.886719 C 702.050781 347.589844 700.832031 349.234375 699.53125 350.820312 C 698.230469 352.40625 696.855469 353.921875 695.40625 355.371094 C 693.957031 356.820312 692.4375 358.195312 690.855469 359.496094 C 689.269531 360.796875 687.625 362.015625 685.921875 363.15625 C 684.214844 364.292969 682.460938 365.347656 680.652344 366.3125 C 678.84375 367.28125 676.992188 368.15625 675.101562 368.941406 C 673.207031 369.722656 671.277344 370.414062 669.316406 371.007812 C 667.355469 371.605469 665.367188 372.101562 663.359375 372.5 C 661.347656 372.902344 659.324219 373.203125 657.28125 373.402344 C 655.242188 373.605469 653.199219 373.703125 651.148438 373.703125 C 649.097656 373.703125 647.050781 373.605469 645.011719 373.402344 C 642.972656 373.203125 640.945312 372.902344 638.9375 372.5 C 636.925781 372.101562 634.941406 371.605469 632.976562 371.007812 C 631.015625 370.414062 629.089844 369.722656 627.195312 368.941406 C 625.300781 368.15625 623.449219 367.28125 621.640625 366.3125 C 619.835938 365.347656 618.078125 364.292969 616.375 363.15625 C 614.667969 362.015625 613.023438 360.796875 611.441406 359.496094 C 609.855469 358.195312 608.339844 356.820312 606.890625 355.371094 C 605.4375 353.921875 604.0625 352.40625 602.765625 350.820312 C 601.464844 349.234375 600.242188 347.589844 599.105469 345.886719 C 597.964844 344.183594 596.914062 342.425781 595.945312 340.617188 C 594.980469 338.8125 594.105469 336.960938 593.320312 335.066406 C 592.535156 333.171875 591.847656 331.246094 591.25 329.28125 C 590.65625 327.320312 590.160156 325.335938 589.757812 323.324219 C 589.359375 321.3125 589.058594 319.289062 588.859375 317.25 C 588.65625 315.207031 588.554688 313.164062 588.554688 311.113281 C 588.554688 309.0625 588.65625 307.019531 588.859375 304.980469 C 589.058594 302.9375 589.359375 300.914062 589.757812 298.902344 C 590.160156 296.890625 590.65625 294.90625 591.25 292.945312 C 591.847656 290.984375 592.535156 289.054688 593.320312 287.160156 C 594.105469 285.265625 594.980469 283.417969 595.945312 281.609375 C 596.914062 279.800781 597.964844 278.042969 599.105469 276.339844 C 600.242188 274.636719 601.464844 272.992188 602.765625 271.40625 C 604.0625 269.820312 605.4375 268.304688 606.890625 266.855469 C 608.339844 265.40625 609.855469 264.03125 611.441406 262.730469 C 613.023438 261.429688 614.667969 260.210938 616.375 259.070312 C 618.078125 257.933594 619.835938 256.878906 621.640625 255.914062 C 623.449219 254.945312 625.300781 254.070312 627.195312 253.289062 C 629.089844 252.503906 631.015625 251.8125 632.976562 251.21875 C 634.941406 250.621094 636.925781 250.125 638.9375 249.726562 C 640.945312 249.324219 642.972656 249.023438 645.011719 248.824219 C 647.050781 248.625 649.097656 248.523438 651.148438 248.523438 C 653.199219 248.523438 655.242188 248.625 657.28125 248.824219 C 659.324219 249.023438 661.347656 249.324219 663.359375 249.726562 C 665.367188 250.125 667.355469 250.621094 669.316406 251.21875 C 671.277344 251.8125 673.207031 252.503906 675.101562 253.289062 C 676.992188 254.070312 678.84375 254.945312 680.652344 255.914062 C 682.460938 256.878906 684.214844 257.933594 685.921875 259.070312 C 687.625 260.210938 689.269531 261.429688 690.855469 262.730469 C 692.4375 264.03125 693.957031 265.40625 695.40625 266.855469 C 696.855469 268.304688 698.230469 269.820312 699.53125 271.40625 C 700.832031 272.992188 702.050781 274.636719 703.191406 276.339844 C 704.328125 278.042969 705.382812 279.800781 706.347656 281.609375 C 707.3125 283.417969 708.1875 285.265625 708.972656 287.160156 C 709.757812 289.054688 710.449219 290.984375 711.042969 292.945312 C 711.636719 294.90625 712.136719 296.890625 712.535156 298.902344 C 712.933594 300.914062 713.234375 302.9375 713.4375 304.980469 C 713.636719 307.019531 713.738281 309.0625 713.738281 311.113281 Z M 713.738281 311.113281 " fill-opacity="1" fill-rule="nonzero"/><g clip-path="url(#7b6f14163c)"><path fill="#ffffff" d="M 989.136719 311.113281 C 989.136719 313.164062 989.039062 315.207031 988.835938 317.25 C 988.636719 319.289062 988.335938 321.3125 987.9375 323.324219 C 987.535156 325.335938 987.039062 327.320312 986.441406 329.28125 C 985.847656 331.246094 985.160156 333.171875 984.375 335.066406 C 983.589844 336.960938 982.714844 338.8125 981.746094 340.617188 C 980.78125 342.425781 979.730469 344.183594 978.589844 345.886719 C 977.449219 347.589844 976.230469 349.234375 974.929688 350.820312 C 973.628906 352.40625 972.253906 353.921875 970.804688 355.371094 C 969.355469 356.820312 967.839844 358.195312 966.253906 359.496094 C 964.671875 360.796875 963.027344 362.015625 961.320312 363.15625 C 959.617188 364.292969 957.859375 365.347656 956.050781 366.3125 C 954.246094 367.28125 952.394531 368.15625 950.5 368.941406 C 948.605469 369.722656 946.679688 370.414062 944.714844 371.007812 C 942.753906 371.605469 940.769531 372.101562 938.757812 372.5 C 936.746094 372.902344 934.722656 373.203125 932.683594 373.402344 C 930.640625 373.605469 928.597656 373.703125 926.546875 373.703125 C 924.496094 373.703125 922.453125 373.605469 920.414062 373.402344 C 918.371094 373.203125 916.347656 372.902344 914.335938 372.5 C 912.324219 372.101562 910.339844 371.605469 908.378906 371.007812 C 906.417969 370.414062 904.488281 369.722656 902.59375 368.941406 C 900.699219 368.15625 898.851562 367.28125 897.042969 366.3125 C 895.234375 365.347656 893.476562 364.292969 891.773438 363.15625 C 890.070312 362.015625 888.425781 360.796875 886.839844 359.496094 C 885.253906 358.195312 883.738281 356.820312 882.289062 355.371094 C 880.839844 353.921875 879.464844 352.40625 878.164062 350.820312 C 876.863281 349.234375 875.644531 347.589844 874.503906 345.886719 C 873.367188 344.183594 872.3125 342.425781 871.347656 340.617188 C 870.378906 338.8125 869.503906 336.960938 868.722656 335.066406 C 867.9375 333.171875 867.246094 331.246094 866.652344 329.28125 C 866.054688 327.320312 865.558594 325.335938 865.160156 323.324219 C 864.757812 321.3125 864.457031 319.289062 864.257812 317.25 C 864.058594 315.207031 863.957031 313.164062 863.957031 311.113281 C 863.957031 309.0625 864.058594 307.019531 864.257812 304.980469 C 864.457031 302.9375 864.757812 300.914062 865.160156 298.902344 C 865.558594 296.890625 866.054688 294.90625 866.652344 292.945312 C 867.246094 290.984375 867.9375 289.054688 868.722656 287.160156 C 869.503906 285.265625 870.378906 283.417969 871.347656 281.609375 C 872.3125 279.800781 873.367188 278.042969 874.503906 276.339844 C 875.644531 274.636719 876.863281 272.992188 878.164062 271.40625 C 879.464844 269.820312 880.839844 268.304688 882.289062 266.855469 C 883.738281 265.40625 885.253906 264.03125 886.839844 262.730469 C 888.425781 261.429688 890.070312 260.210938 891.773438 259.070312 C 893.476562 257.933594 895.234375 256.878906 897.042969 255.914062 C 898.851562 254.945312 900.699219 254.070312 902.59375 253.289062 C 904.488281 252.503906 906.417969 251.8125 908.378906 251.21875 C 910.339844 250.621094 912.324219 250.125 914.335938 249.726562 C 916.347656 249.324219 918.371094 249.023438 920.414062 248.824219 C 922.453125 248.625 924.496094 248.523438 926.546875 248.523438 C 928.597656 248.523438 930.640625 248.625 932.683594 248.824219 C 934.722656 249.023438 936.746094 249.324219 938.757812 249.726562 C 940.769531 250.125 942.753906 250.621094 944.714844 251.21875 C 946.679688 251.8125 948.605469 252.503906 950.5 253.289062 C 952.394531 254.070312 954.246094 254.945312 956.050781 255.914062 C 957.859375 256.878906 959.617188 257.933594 961.320312 259.070312 C 963.027344 260.210938 964.671875 261.429688 966.253906 262.730469 C 967.839844 264.03125 969.355469 265.40625 970.804688 266.855469 C 972.253906 268.304688 973.628906 269.820312 974.929688 271.40625 C 976.230469 272.992188 977.449219 274.636719 978.589844 276.339844 C 979.730469 278.042969 980.78125 279.800781 981.746094 281.609375 C 982.714844 283.417969 983.589844 285.265625 984.375 287.160156 C 985.160156 289.054688 985.847656 290.984375 986.441406 292.945312 C 987.039062 294.90625 987.535156 296.890625 987.9375 298.902344 C 988.335938 300.914062 988.636719 302.9375 988.835938 304.980469 C 989.039062 307.019531 989.136719 309.0625 989.136719 311.113281 Z M 989.136719 311.113281 " fill-opacity="1" fill-rule="nonzero"/></g><g clip-path="url(#efd7844384)"><path fill="#ffffff" d="M 576.039062 498.886719 C 576.039062 500.9375 575.9375 502.980469 575.738281 505.019531 C 575.535156 507.0625 575.234375 509.085938 574.835938 511.097656 C 574.4375 513.109375 573.9375 515.09375 573.34375 517.054688 C 572.75 519.015625 572.058594 520.945312 571.273438 522.839844 C 570.488281 524.734375 569.613281 526.582031 568.648438 528.390625 C 567.679688 530.199219 566.628906 531.957031 565.488281 533.660156 C 564.351562 535.363281 563.132812 537.007812 561.832031 538.59375 C 560.53125 540.179688 559.15625 541.695312 557.707031 543.144531 C 556.257812 544.59375 554.738281 545.96875 553.15625 547.269531 C 551.570312 548.570312 549.925781 549.789062 548.222656 550.929688 C 546.515625 552.066406 544.761719 553.121094 542.953125 554.085938 C 541.144531 555.054688 539.292969 555.929688 537.398438 556.710938 C 535.507812 557.496094 533.578125 558.1875 531.617188 558.78125 C 529.65625 559.378906 527.667969 559.875 525.660156 560.273438 C 523.648438 560.675781 521.621094 560.976562 519.582031 561.175781 C 517.542969 561.375 515.496094 561.476562 513.449219 561.476562 C 511.398438 561.476562 509.351562 561.375 507.3125 561.175781 C 505.273438 560.976562 503.246094 560.675781 501.238281 560.273438 C 499.226562 559.875 497.238281 559.378906 495.277344 558.78125 C 493.316406 558.1875 491.390625 557.496094 489.496094 556.710938 C 487.601562 555.929688 485.75 555.054688 483.941406 554.085938 C 482.132812 553.121094 480.378906 552.066406 478.671875 550.929688 C 476.96875 549.789062 475.324219 548.570312 473.738281 547.269531 C 472.15625 545.96875 470.636719 544.59375 469.1875 543.144531 C 467.738281 541.695312 466.363281 540.179688 465.0625 538.59375 C 463.761719 537.007812 462.542969 535.363281 461.40625 533.660156 C 460.265625 531.957031 459.214844 530.199219 458.246094 528.390625 C 457.28125 526.582031 456.40625 524.734375 455.621094 522.839844 C 454.835938 520.945312 454.148438 519.015625 453.550781 517.054688 C 452.957031 515.09375 452.460938 513.109375 452.058594 511.097656 C 451.660156 509.085938 451.359375 507.0625 451.15625 505.019531 C 450.957031 502.980469 450.855469 500.9375 450.855469 498.886719 C 450.855469 496.835938 450.957031 494.792969 451.15625 492.75 C 451.359375 490.710938 451.660156 488.6875 452.058594 486.675781 C 452.460938 484.664062 452.957031 482.679688 453.550781 480.71875 C 454.148438 478.753906 454.835938 476.828125 455.621094 474.933594 C 456.40625 473.039062 457.28125 471.1875 458.246094 469.382812 C 459.214844 467.574219 460.265625 465.816406 461.40625 464.113281 C 462.542969 462.40625 463.761719 460.765625 465.0625 459.179688 C 466.363281 457.59375 467.738281 456.078125 469.1875 454.628906 C 470.636719 453.179688 472.15625 451.804688 473.738281 450.503906 C 475.324219 449.203125 476.96875 447.984375 478.671875 446.84375 C 480.378906 445.703125 482.132812 444.652344 483.941406 443.6875 C 485.75 442.71875 487.601562 441.84375 489.496094 441.058594 C 491.390625 440.273438 493.316406 439.585938 495.277344 438.992188 C 497.238281 438.394531 499.226562 437.898438 501.238281 437.496094 C 503.246094 437.097656 505.273438 436.796875 507.3125 436.597656 C 509.351562 436.394531 511.398438 436.296875 513.449219 436.296875 C 515.496094 436.296875 517.542969 436.394531 519.582031 436.597656 C 521.621094 436.796875 523.648438 437.097656 525.660156 437.496094 C 527.667969 437.898438 529.65625 438.394531 531.617188 438.992188 C 533.578125 439.585938 535.507812 440.273438 537.398438 441.058594 C 539.292969 441.84375 541.144531 442.71875 542.953125 443.6875 C 544.761719 444.652344 546.515625 445.703125 548.222656 446.84375 C 549.925781 447.984375 551.570312 449.203125 553.15625 450.503906 C 554.738281 451.804688 556.257812 453.179688 557.707031 454.628906 C 559.15625 456.078125 560.53125 457.59375 561.832031 459.179688 C 563.132812 460.765625 564.351562 462.40625 565.488281 464.113281 C 566.628906 465.816406 567.679688 467.574219 568.648438 469.382812 C 569.613281 471.1875 570.488281 473.039062 571.273438 474.933594 C 572.058594 476.828125 572.75 478.753906 573.34375 480.71875 C 573.9375 482.679688 574.4375 484.664062 574.835938 486.675781 C 575.234375 488.6875 575.535156 490.710938 575.738281 492.75 C 575.9375 494.792969 576.039062 496.835938 576.039062 498.886719 Z M 576.039062 498.886719 " fill-opacity="1" fill-rule="nonzero"/></g><path fill="#ffffff" d="M 851.4375 498.886719 C 851.4375 500.9375 851.335938 502.980469 851.136719 505.019531 C 850.9375 507.0625 850.636719 509.085938 850.234375 511.097656 C 849.835938 513.109375 849.339844 515.09375 848.742188 517.054688 C 848.148438 519.015625 847.457031 520.945312 846.671875 522.839844 C 845.890625 524.734375 845.015625 526.582031 844.046875 528.390625 C 843.082031 530.199219 842.027344 531.957031 840.890625 533.660156 C 839.75 535.363281 838.53125 537.007812 837.230469 538.59375 C 835.929688 540.179688 834.554688 541.695312 833.105469 543.144531 C 831.65625 544.59375 830.140625 545.96875 828.554688 547.269531 C 826.96875 548.570312 825.324219 549.789062 823.621094 550.929688 C 821.917969 552.066406 820.160156 553.121094 818.351562 554.085938 C 816.542969 555.054688 814.695312 555.929688 812.800781 556.710938 C 810.90625 557.496094 808.976562 558.1875 807.015625 558.78125 C 805.054688 559.378906 803.070312 559.875 801.058594 560.273438 C 799.046875 560.675781 797.023438 560.976562 794.980469 561.175781 C 792.941406 561.375 790.898438 561.476562 788.847656 561.476562 C 786.796875 561.476562 784.753906 561.375 782.710938 561.175781 C 780.671875 560.976562 778.648438 560.675781 776.636719 560.273438 C 774.625 559.875 772.640625 559.378906 770.679688 558.78125 C 768.714844 558.1875 766.789062 557.496094 764.894531 556.710938 C 763 555.929688 761.148438 555.054688 759.34375 554.085938 C 757.535156 553.121094 755.777344 552.066406 754.074219 550.929688 C 752.371094 549.789062 750.726562 548.570312 749.140625 547.269531 C 747.554688 545.96875 746.039062 544.59375 744.589844 543.144531 C 743.140625 541.695312 741.765625 540.179688 740.464844 538.59375 C 739.164062 537.007812 737.945312 535.363281 736.804688 533.660156 C 735.667969 531.957031 734.613281 530.199219 733.648438 528.390625 C 732.679688 526.582031 731.804688 524.734375 731.019531 522.839844 C 730.238281 520.945312 729.546875 519.015625 728.953125 517.054688 C 728.355469 515.09375 727.859375 513.109375 727.460938 511.097656 C 727.058594 509.085938 726.757812 507.0625 726.558594 505.019531 C 726.355469 502.980469 726.257812 500.9375 726.257812 498.886719 C 726.257812 496.835938 726.355469 494.792969 726.558594 492.75 C 726.757812 490.710938 727.058594 488.6875 727.460938 486.675781 C 727.859375 484.664062 728.355469 482.679688 728.953125 480.71875 C 729.546875 478.753906 730.238281 476.828125 731.019531 474.933594 C 731.804688 473.039062 732.679688 471.1875 733.648438 469.382812 C 734.613281 467.574219 735.667969 465.816406 736.804688 464.113281 C 737.945312 462.40625 739.164062 460.765625 740.464844 459.179688 C 741.765625 457.59375 743.140625 456.078125 744.589844 454.628906 C 746.039062 453.179688 747.554688 451.804688 749.140625 450.503906 C 750.726562 449.203125 752.371094 447.984375 754.074219 446.84375 C 755.777344 445.703125 757.535156 444.652344 759.34375 443.6875 C 761.148438 442.71875 763 441.84375 764.894531 441.058594 C 766.789062 440.273438 768.714844 439.585938 770.679688 438.992188 C 772.640625 438.394531 774.625 437.898438 776.636719 437.496094 C 778.648438 437.097656 780.671875 436.796875 782.710938 436.597656 C 784.753906 436.394531 786.796875 436.296875 788.847656 436.296875 C 790.898438 436.296875 792.941406 436.394531 794.980469 436.597656 C 797.023438 436.796875 799.046875 437.097656 801.058594 437.496094 C 803.070312 437.898438 805.054688 438.394531 807.015625 438.992188 C 808.976562 439.585938 810.90625 440.273438 812.800781 441.058594 C 814.695312 441.84375 816.542969 442.71875 818.351562 443.6875 C 820.160156 444.652344 821.917969 445.703125 823.621094 446.84375 C 825.324219 447.984375 826.96875 449.203125 828.554688 450.503906 C 830.140625 451.804688 831.65625 453.179688 833.105469 454.628906 C 834.554688 456.078125 835.929688 457.59375 837.230469 459.179688 C 838.53125 460.765625 839.75 462.40625 840.890625 464.113281 C 842.027344 465.816406 843.082031 467.574219 844.046875 469.382812 C 845.015625 471.1875 845.890625 473.039062 846.671875 474.933594 C 847.457031 476.828125 848.148438 478.753906 848.742188 480.71875 C 849.339844 482.679688 849.835938 484.664062 850.234375 486.675781 C 850.636719 488.6875 850.9375 490.710938 851.136719 492.75 C 851.335938 494.792969 851.4375 496.835938 851.4375 498.886719 Z M 851.4375 498.886719 " fill-opacity="1" fill-rule="nonzero"/><g clip-path="url(#466e584b8c)"><path fill="#ffffff" d="M 713.738281 686.660156 C 713.738281 688.707031 713.636719 690.753906 713.4375 692.792969 C 713.234375 694.835938 712.933594 696.859375 712.535156 698.871094 C 712.136719 700.878906 711.636719 702.867188 711.042969 704.828125 C 710.449219 706.789062 709.757812 708.71875 708.972656 710.613281 C 708.1875 712.503906 707.3125 714.355469 706.347656 716.164062 C 705.382812 717.972656 704.328125 719.726562 703.191406 721.433594 C 702.050781 723.136719 700.832031 724.78125 699.53125 726.367188 C 698.230469 727.949219 696.855469 729.46875 695.40625 730.917969 C 693.957031 732.367188 692.4375 733.742188 690.855469 735.042969 C 689.269531 736.34375 687.625 737.5625 685.921875 738.703125 C 684.214844 739.839844 682.460938 740.894531 680.652344 741.859375 C 678.84375 742.824219 676.992188 743.699219 675.101562 744.484375 C 673.207031 745.269531 671.277344 745.960938 669.316406 746.554688 C 667.355469 747.148438 665.367188 747.648438 663.359375 748.046875 C 661.347656 748.445312 659.324219 748.746094 657.28125 748.949219 C 655.242188 749.148438 653.199219 749.25 651.148438 749.25 C 649.097656 749.25 647.050781 749.148438 645.011719 748.949219 C 642.972656 748.746094 640.945312 748.445312 638.9375 748.046875 C 636.925781 747.648438 634.941406 747.148438 632.976562 746.554688 C 631.015625 745.960938 629.089844 745.269531 627.195312 744.484375 C 625.300781 743.699219 623.449219 742.824219 621.640625 741.859375 C 619.835938 740.894531 618.078125 739.839844 616.375 738.703125 C 614.667969 737.5625 613.023438 736.34375 611.441406 735.042969 C 609.855469 733.742188 608.339844 732.367188 606.890625 730.917969 C 605.4375 729.46875 604.0625 727.949219 602.765625 726.367188 C 601.464844 724.78125 600.242188 723.136719 599.105469 721.433594 C 597.964844 719.726562 596.914062 717.972656 595.945312 716.164062 C 594.980469 714.355469 594.105469 712.503906 593.320312 710.613281 C 592.535156 708.71875 591.847656 706.789062 591.25 704.828125 C 590.65625 702.867188 590.160156 700.878906 589.757812 698.871094 C 589.359375 696.859375 589.058594 694.835938 588.859375 692.792969 C 588.65625 690.753906 588.554688 688.707031 588.554688 686.660156 C 588.554688 684.609375 588.65625 682.5625 588.859375 680.523438 C 589.058594 678.484375 589.359375 676.457031 589.757812 674.449219 C 590.160156 672.4375 590.65625 670.453125 591.25 668.488281 C 591.847656 666.527344 592.535156 664.601562 593.320312 662.707031 C 594.105469 660.8125 594.980469 658.960938 595.945312 657.152344 C 596.914062 655.347656 597.964844 653.589844 599.105469 651.886719 C 600.242188 650.179688 601.464844 648.535156 602.765625 646.953125 C 604.0625 645.367188 605.4375 643.851562 606.890625 642.402344 C 608.339844 640.949219 609.855469 639.574219 611.441406 638.277344 C 613.023438 636.976562 614.667969 635.753906 616.375 634.617188 C 618.078125 633.476562 619.835938 632.425781 621.640625 631.457031 C 623.449219 630.492188 625.300781 629.617188 627.195312 628.832031 C 629.089844 628.046875 631.015625 627.359375 632.976562 626.761719 C 634.941406 626.167969 636.925781 625.671875 638.9375 625.269531 C 640.945312 624.871094 642.972656 624.570312 645.011719 624.371094 C 647.050781 624.167969 649.097656 624.066406 651.148438 624.066406 C 653.199219 624.066406 655.242188 624.167969 657.28125 624.371094 C 659.324219 624.570312 661.347656 624.871094 663.359375 625.269531 C 665.367188 625.671875 667.355469 626.167969 669.316406 626.761719 C 671.277344 627.359375 673.207031 628.046875 675.101562 628.832031 C 676.992188 629.617188 678.84375 630.492188 680.652344 631.457031 C 682.460938 632.425781 684.214844 633.476562 685.921875 634.617188 C 687.625 635.753906 689.269531 636.976562 690.855469 638.277344 C 692.4375 639.574219 693.957031 640.949219 695.40625 642.402344 C 696.855469 643.851562 698.230469 645.367188 699.53125 646.953125 C 700.832031 648.535156 702.050781 650.179688 703.191406 651.886719 C 704.328125 653.589844 705.382812 655.347656 706.347656 657.152344 C 707.3125 658.960938 708.1875 660.8125 708.972656 662.707031 C 709.757812 664.601562 710.449219 666.527344 711.042969 668.488281 C 711.636719 670.453125 712.136719 672.4375 712.535156 674.449219 C 712.933594 676.457031 713.234375 678.484375 713.4375 680.523438 C 713.636719 682.5625 713.738281 684.609375 713.738281 686.660156 Z M 713.738281 686.660156 " fill-opacity="1" fill-rule="nonzero"/></g><g clip-path="url(#7f34bdbf0d)"><path fill="#ffffff" d="M 989.136719 686.660156 C 989.136719 688.707031 989.039062 690.753906 988.835938 692.792969 C 988.636719 694.835938 988.335938 696.859375 987.9375 698.871094 C 987.535156 700.878906 987.039062 702.867188 986.441406 704.828125 C 985.847656 706.789062 985.160156 708.71875 984.375 710.613281 C 983.589844 712.503906 982.714844 714.355469 981.746094 716.164062 C 980.78125 717.972656 979.730469 719.726562 978.589844 721.433594 C 977.449219 723.136719 976.230469 724.78125 974.929688 726.367188 C 973.628906 727.949219 972.253906 729.46875 970.804688 730.917969 C 969.355469 732.367188 967.839844 733.742188 966.253906 735.042969 C 964.671875 736.34375 963.027344 737.5625 961.320312 738.703125 C 959.617188 739.839844 957.859375 740.894531 956.050781 741.859375 C 954.246094 742.824219 952.394531 743.699219 950.5 744.484375 C 948.605469 745.269531 946.679688 745.960938 944.714844 746.554688 C 942.753906 747.148438 940.769531 747.648438 938.757812 748.046875 C 936.746094 748.445312 934.722656 748.746094 932.683594 748.949219 C 930.640625 749.148438 928.597656 749.25 926.546875 749.25 C 924.496094 749.25 922.453125 749.148438 920.414062 748.949219 C 918.371094 748.746094 916.347656 748.445312 914.335938 748.046875 C 912.324219 747.648438 910.339844 747.148438 908.378906 746.554688 C 906.417969 745.960938 904.488281 745.269531 902.59375 744.484375 C 900.699219 743.699219 898.851562 742.824219 897.042969 741.859375 C 895.234375 740.894531 893.476562 739.839844 891.773438 738.703125 C 890.070312 737.5625 888.425781 736.34375 886.839844 735.042969 C 885.253906 733.742188 883.738281 732.367188 882.289062 730.917969 C 880.839844 729.46875 879.464844 727.949219 878.164062 726.367188 C 876.863281 724.78125 875.644531 723.136719 874.503906 721.433594 C 873.367188 719.726562 872.3125 717.972656 871.347656 716.164062 C 870.378906 714.355469 869.503906 712.503906 868.722656 710.613281 C 867.9375 708.71875 867.246094 706.789062 866.652344 704.828125 C 866.054688 702.867188 865.558594 700.878906 865.160156 698.871094 C 864.757812 696.859375 864.457031 694.835938 864.257812 692.792969 C 864.058594 690.753906 863.957031 688.707031 863.957031 686.660156 C 863.957031 684.609375 864.058594 682.5625 864.257812 680.523438 C 864.457031 678.484375 864.757812 676.457031 865.160156 674.449219 C 865.558594 672.4375 866.054688 670.453125 866.652344 668.488281 C 867.246094 666.527344 867.9375 664.601562 868.722656 662.707031 C 869.503906 660.8125 870.378906 658.960938 871.347656 657.152344 C 872.3125 655.347656 873.367188 653.589844 874.503906 651.886719 C 875.644531 650.179688 876.863281 648.535156 878.164062 646.953125 C 879.464844 645.367188 880.839844 643.851562 882.289062 642.402344 C 883.738281 640.949219 885.253906 639.574219 886.839844 638.277344 C 888.425781 636.976562 890.070312 635.753906 891.773438 634.617188 C 893.476562 633.476562 895.234375 632.425781 897.042969 631.457031 C 898.851562 630.492188 900.699219 629.617188 902.59375 628.832031 C 904.488281 628.046875 906.417969 627.359375 908.378906 626.761719 C 910.339844 626.167969 912.324219 625.671875 914.335938 625.269531 C 916.347656 624.871094 918.371094 624.570312 920.414062 624.371094 C 922.453125 624.167969 924.496094 624.066406 926.546875 624.066406 C 928.597656 624.066406 930.640625 624.167969 932.683594 624.371094 C 934.722656 624.570312 936.746094 624.871094 938.757812 625.269531 C 940.769531 625.671875 942.753906 626.167969 944.714844 626.761719 C 946.679688 627.359375 948.605469 628.046875 950.5 628.832031 C 952.394531 629.617188 954.246094 630.492188 956.050781 631.457031 C 957.859375 632.425781 959.617188 633.476562 961.320312 634.617188 C 963.027344 635.753906 964.671875 636.976562 966.253906 638.277344 C 967.839844 639.574219 969.355469 640.949219 970.804688 642.402344 C 972.253906 643.851562 973.628906 645.367188 974.929688 646.953125 C 976.230469 648.535156 977.449219 650.179688 978.589844 651.886719 C 979.730469 653.589844 980.78125 655.347656 981.746094 657.152344 C 982.714844 658.960938 983.589844 660.8125 984.375 662.707031 C 985.160156 664.601562 985.847656 666.527344 986.441406 668.488281 C 987.039062 670.453125 987.535156 672.4375 987.9375 674.449219 C 988.335938 676.457031 988.636719 678.484375 988.835938 680.523438 C 989.039062 682.5625 989.136719 684.609375 989.136719 686.660156 Z M 989.136719 686.660156 " fill-opacity="1" fill-rule="nonzero"/></g></svg>