<svg xmlns="http://www.w3.org/2000/svg" xmlns:xlink="http://www.w3.org/1999/xlink" width="500" zoomAndPan="magnify" viewBox="0 0 375 374.999991" height="500" preserveAspectRatio="xMidYMid meet" version="1.0"><defs><clipPath id="2624bf4608"><path d="M 262 102 L 330.75 102 L 330.75 171 L 262 171 Z M 262 102 " clip-rule="nonzero"/></clipPath><clipPath id="c73b5c70e4"><path d="M 37.5 204 L 106 204 L 106 273 L 37.5 273 Z M 37.5 204 " clip-rule="nonzero"/></clipPath><clipPath id="ae7f21da3a"><path d="M 262 306 L 330.75 306 L 330.75 375 L 262 375 Z M 262 306 " clip-rule="nonzero"/></clipPath></defs><path fill="#fefefe" d="M 195.40625 55.492188 L 155.964844 103.703125 C 160.546875 105.007812 164.699219 107.222656 168.285156 110.175781 L 205.902344 64.191406 C 206.25 64.378906 206.625 64.511719 206.976562 64.683594 C 202.457031 62.503906 198.542969 59.351562 195.40625 55.492188 Z M 195.40625 55.492188 " fill-opacity="1" fill-rule="nonzero"/><path fill="#fefefe" d="M 287.472656 103.710938 L 248.03125 55.5 C 244.886719 59.351562 240.980469 62.507812 236.460938 64.699219 C 236.8125 64.527344 237.183594 64.390625 237.535156 64.207031 L 275.152344 110.1875 C 278.738281 107.222656 282.890625 105.011719 287.472656 103.710938 Z M 287.472656 103.710938 " fill-opacity="1" fill-rule="nonzero"/><path fill="#fefefe" d="M 212.472656 205.984375 L 173.03125 157.773438 C 169.886719 161.625 165.980469 164.78125 161.460938 166.96875 C 161.8125 166.800781 162.183594 166.664062 162.535156 166.480469 L 200.152344 212.460938 C 203.738281 209.496094 207.890625 207.285156 212.472656 205.984375 Z M 212.472656 205.984375 " fill-opacity="1" fill-rule="nonzero"/><path fill="#fefefe" d="M 120.40625 157.765625 L 80.964844 205.976562 C 85.546875 207.28125 89.699219 209.496094 93.285156 212.449219 L 130.902344 166.464844 C 131.25 166.648438 131.625 166.785156 131.976562 166.957031 C 127.457031 164.773438 123.542969 161.625 120.40625 157.765625 Z M 120.40625 157.765625 " fill-opacity="1" fill-rule="nonzero"/><path fill="#fefefe" d="M 195.40625 260.039062 L 155.964844 308.25 C 160.546875 309.550781 164.699219 311.769531 168.285156 314.71875 L 205.902344 268.738281 C 206.25 268.921875 206.625 269.058594 206.976562 269.230469 C 202.457031 267.046875 198.542969 263.898438 195.40625 260.039062 Z M 195.40625 260.039062 " fill-opacity="1" fill-rule="nonzero"/><path fill="#fefefe" d="M 287.472656 308.257812 L 248.03125 260.046875 C 244.886719 263.898438 240.980469 267.054688 236.460938 269.242188 C 236.8125 269.074219 237.183594 268.9375 237.535156 268.753906 L 275.152344 314.734375 C 278.738281 311.769531 282.890625 309.558594 287.472656 308.257812 Z M 287.472656 308.257812 " fill-opacity="1" fill-rule="nonzero"/><path fill="#fefefe" d="M 255.808594 34.089844 C 255.808594 35.207031 255.753906 36.320312 255.644531 37.433594 C 255.535156 38.542969 255.371094 39.648438 255.15625 40.742188 C 254.9375 41.835938 254.664062 42.917969 254.339844 43.988281 C 254.015625 45.054688 253.640625 46.105469 253.214844 47.136719 C 252.789062 48.167969 252.308594 49.175781 251.785156 50.160156 C 251.257812 51.144531 250.683594 52.101562 250.0625 53.03125 C 249.445312 53.960938 248.78125 54.855469 248.070312 55.71875 C 247.363281 56.582031 246.613281 57.40625 245.824219 58.195312 C 245.035156 58.984375 244.207031 59.734375 243.347656 60.445312 C 242.484375 61.152344 241.585938 61.816406 240.660156 62.4375 C 239.730469 63.058594 238.773438 63.628906 237.789062 64.15625 C 236.804688 64.683594 235.796875 65.160156 234.765625 65.585938 C 233.734375 66.015625 232.683594 66.390625 231.613281 66.714844 C 230.546875 67.039062 229.464844 67.308594 228.371094 67.527344 C 227.273438 67.746094 226.171875 67.910156 225.058594 68.019531 C 223.949219 68.128906 222.835938 68.183594 221.71875 68.183594 C 220.601562 68.183594 219.488281 68.128906 218.378906 68.019531 C 217.265625 67.910156 216.164062 67.746094 215.066406 67.527344 C 213.972656 67.308594 212.890625 67.039062 211.824219 66.714844 C 210.753906 66.390625 209.703125 66.015625 208.671875 65.585938 C 207.640625 65.160156 206.632812 64.683594 205.648438 64.15625 C 204.664062 63.628906 203.707031 63.058594 202.777344 62.4375 C 201.851562 61.816406 200.953125 61.152344 200.089844 60.445312 C 199.230469 59.734375 198.402344 58.984375 197.613281 58.195312 C 196.824219 57.40625 196.074219 56.582031 195.367188 55.71875 C 194.65625 54.855469 193.992188 53.960938 193.375 53.03125 C 192.753906 52.101562 192.179688 51.144531 191.652344 50.160156 C 191.125 49.175781 190.648438 48.167969 190.222656 47.136719 C 189.796875 46.105469 189.417969 45.054688 189.097656 43.988281 C 188.773438 42.917969 188.5 41.835938 188.28125 40.742188 C 188.066406 39.648438 187.902344 38.542969 187.792969 37.433594 C 187.683594 36.320312 187.628906 35.207031 187.628906 34.089844 C 187.628906 32.972656 187.683594 31.859375 187.792969 30.75 C 187.902344 29.636719 188.066406 28.535156 188.28125 27.441406 C 188.5 26.34375 188.773438 25.261719 189.097656 24.195312 C 189.417969 23.125 189.796875 22.078125 190.222656 21.042969 C 190.648438 20.011719 191.125 19.003906 191.652344 18.019531 C 192.179688 17.035156 192.753906 16.078125 193.375 15.152344 C 193.992188 14.222656 194.65625 13.328125 195.367188 12.464844 C 196.074219 11.601562 196.824219 10.773438 197.613281 9.984375 C 198.402344 9.195312 199.230469 8.445312 200.089844 7.738281 C 200.953125 7.03125 201.851562 6.367188 202.777344 5.746094 C 203.707031 5.125 204.664062 4.550781 205.648438 4.027344 C 206.632812 3.5 207.640625 3.023438 208.671875 2.59375 C 209.703125 2.167969 210.753906 1.792969 211.824219 1.46875 C 212.890625 1.144531 213.972656 0.871094 215.066406 0.65625 C 216.164062 0.4375 217.265625 0.273438 218.378906 0.164062 C 219.488281 0.0546875 220.601562 0 221.71875 0 C 222.835938 0 223.949219 0.0546875 225.058594 0.164062 C 226.171875 0.273438 227.273438 0.4375 228.371094 0.65625 C 229.464844 0.871094 230.546875 1.144531 231.613281 1.46875 C 232.683594 1.792969 233.734375 2.167969 234.765625 2.59375 C 235.796875 3.023438 236.804688 3.5 237.789062 4.027344 C 238.773438 4.550781 239.730469 5.125 240.660156 5.746094 C 241.585938 6.367188 242.484375 7.03125 243.347656 7.738281 C 244.207031 8.445312 245.035156 9.195312 245.824219 9.984375 C 246.613281 10.773438 247.363281 11.601562 248.070312 12.464844 C 248.78125 13.328125 249.445312 14.222656 250.0625 15.152344 C 250.683594 16.078125 251.257812 17.035156 251.785156 18.019531 C 252.308594 19.003906 252.789062 20.011719 253.214844 21.042969 C 253.640625 22.078125 254.015625 23.125 254.339844 24.195312 C 254.664062 25.261719 254.9375 26.34375 255.15625 27.441406 C 255.371094 28.535156 255.535156 29.636719 255.644531 30.75 C 255.753906 31.859375 255.808594 32.972656 255.808594 34.089844 Z M 255.808594 34.089844 " fill-opacity="1" fill-rule="nonzero"/><path fill="#ffffff" d="M 180.808594 136.363281 C 180.808594 137.480469 180.753906 138.59375 180.644531 139.707031 C 180.535156 140.816406 180.371094 141.917969 180.15625 143.015625 C 179.9375 144.109375 179.664062 145.191406 179.339844 146.257812 C 179.019531 147.328125 178.640625 148.378906 178.214844 149.410156 C 177.789062 150.441406 177.308594 151.449219 176.785156 152.433594 C 176.257812 153.417969 175.683594 154.375 175.0625 155.304688 C 174.445312 156.230469 173.78125 157.128906 173.070312 157.992188 C 172.363281 158.855469 171.613281 159.679688 170.824219 160.46875 C 170.035156 161.257812 169.207031 162.007812 168.347656 162.714844 C 167.484375 163.425781 166.585938 164.089844 165.660156 164.710938 C 164.730469 165.328125 163.773438 165.902344 162.789062 166.429688 C 161.804688 166.957031 160.796875 167.433594 159.765625 167.859375 C 158.734375 168.285156 157.683594 168.664062 156.613281 168.988281 C 155.546875 169.3125 154.464844 169.582031 153.371094 169.800781 C 152.273438 170.015625 151.171875 170.179688 150.058594 170.289062 C 148.949219 170.398438 147.835938 170.453125 146.71875 170.453125 C 145.601562 170.453125 144.488281 170.398438 143.378906 170.289062 C 142.265625 170.179688 141.164062 170.015625 140.066406 169.800781 C 138.972656 169.582031 137.890625 169.3125 136.824219 168.988281 C 135.753906 168.664062 134.703125 168.285156 133.671875 167.859375 C 132.640625 167.433594 131.632812 166.957031 130.648438 166.429688 C 129.664062 165.902344 128.707031 165.328125 127.777344 164.710938 C 126.851562 164.089844 125.953125 163.425781 125.089844 162.714844 C 124.230469 162.007812 123.402344 161.257812 122.613281 160.46875 C 121.824219 159.679688 121.074219 158.855469 120.367188 157.992188 C 119.65625 157.128906 118.992188 156.230469 118.375 155.304688 C 117.753906 154.375 117.179688 153.417969 116.652344 152.433594 C 116.125 151.449219 115.648438 150.441406 115.222656 149.410156 C 114.796875 148.378906 114.417969 147.328125 114.097656 146.257812 C 113.773438 145.191406 113.5 144.109375 113.28125 143.015625 C 113.066406 141.917969 112.902344 140.816406 112.792969 139.707031 C 112.683594 138.59375 112.628906 137.480469 112.628906 136.363281 C 112.628906 135.246094 112.683594 134.132812 112.792969 133.023438 C 112.902344 131.910156 113.066406 130.808594 113.28125 129.710938 C 113.5 128.617188 113.773438 127.535156 114.097656 126.46875 C 114.417969 125.398438 114.796875 124.347656 115.222656 123.316406 C 115.648438 122.285156 116.125 121.277344 116.652344 120.292969 C 117.179688 119.308594 117.753906 118.351562 118.375 117.421875 C 118.992188 116.496094 119.65625 115.601562 120.367188 114.738281 C 121.074219 113.875 121.824219 113.046875 122.613281 112.257812 C 123.402344 111.46875 124.230469 110.71875 125.089844 110.011719 C 125.953125 109.300781 126.851562 108.636719 127.777344 108.019531 C 128.707031 107.398438 129.664062 106.824219 130.648438 106.296875 C 131.632812 105.773438 132.640625 105.296875 133.671875 104.867188 C 134.703125 104.441406 135.753906 104.066406 136.824219 103.742188 C 137.890625 103.417969 138.972656 103.144531 140.066406 102.929688 C 141.164062 102.710938 142.265625 102.546875 143.378906 102.4375 C 144.488281 102.328125 145.601562 102.273438 146.71875 102.273438 C 147.835938 102.273438 148.949219 102.328125 150.058594 102.4375 C 151.171875 102.546875 152.273438 102.710938 153.371094 102.929688 C 154.464844 103.144531 155.546875 103.417969 156.613281 103.742188 C 157.683594 104.066406 158.734375 104.441406 159.765625 104.867188 C 160.796875 105.296875 161.804688 105.773438 162.789062 106.296875 C 163.773438 106.824219 164.730469 107.398438 165.660156 108.019531 C 166.585938 108.636719 167.484375 109.300781 168.347656 110.011719 C 169.207031 110.71875 170.035156 111.46875 170.824219 112.257812 C 171.613281 113.046875 172.363281 113.875 173.070312 114.738281 C 173.78125 115.601562 174.445312 116.496094 175.0625 117.421875 C 175.683594 118.351562 176.257812 119.308594 176.785156 120.292969 C 177.308594 121.277344 177.789062 122.285156 178.214844 123.316406 C 178.640625 124.347656 179.019531 125.398438 179.339844 126.46875 C 179.664062 127.535156 179.9375 128.617188 180.15625 129.710938 C 180.371094 130.808594 180.535156 131.910156 180.644531 133.023438 C 180.753906 134.132812 180.808594 135.246094 180.808594 136.363281 Z M 180.808594 136.363281 " fill-opacity="1" fill-rule="nonzero"/><g clip-path="url(#2624bf4608)"><path fill="#ffffff" d="M 330.808594 136.363281 C 330.808594 137.480469 330.753906 138.59375 330.644531 139.707031 C 330.535156 140.816406 330.371094 141.917969 330.15625 143.015625 C 329.9375 144.109375 329.664062 145.191406 329.339844 146.257812 C 329.015625 147.328125 328.640625 148.378906 328.214844 149.410156 C 327.789062 150.441406 327.308594 151.449219 326.785156 152.433594 C 326.257812 153.417969 325.683594 154.375 325.0625 155.304688 C 324.445312 156.230469 323.78125 157.128906 323.070312 157.992188 C 322.363281 158.855469 321.613281 159.679688 320.824219 160.46875 C 320.035156 161.257812 319.207031 162.007812 318.347656 162.714844 C 317.484375 163.425781 316.585938 164.089844 315.660156 164.710938 C 314.730469 165.328125 313.773438 165.902344 312.789062 166.429688 C 311.804688 166.957031 310.796875 167.433594 309.765625 167.859375 C 308.734375 168.285156 307.683594 168.664062 306.613281 168.988281 C 305.546875 169.3125 304.464844 169.582031 303.371094 169.800781 C 302.273438 170.015625 301.171875 170.179688 300.058594 170.289062 C 298.949219 170.398438 297.835938 170.453125 296.71875 170.453125 C 295.601562 170.453125 294.488281 170.398438 293.378906 170.289062 C 292.265625 170.179688 291.164062 170.015625 290.066406 169.800781 C 288.972656 169.582031 287.890625 169.3125 286.824219 168.988281 C 285.753906 168.664062 284.703125 168.285156 283.671875 167.859375 C 282.640625 167.433594 281.632812 166.957031 280.648438 166.429688 C 279.664062 165.902344 278.707031 165.328125 277.777344 164.710938 C 276.851562 164.089844 275.953125 163.425781 275.089844 162.714844 C 274.230469 162.007812 273.402344 161.257812 272.613281 160.46875 C 271.824219 159.679688 271.074219 158.855469 270.367188 157.992188 C 269.65625 157.128906 268.992188 156.230469 268.375 155.304688 C 267.753906 154.375 267.179688 153.417969 266.652344 152.433594 C 266.125 151.449219 265.648438 150.441406 265.222656 149.410156 C 264.796875 148.378906 264.417969 147.328125 264.097656 146.257812 C 263.773438 145.191406 263.5 144.109375 263.28125 143.015625 C 263.066406 141.917969 262.902344 140.816406 262.792969 139.707031 C 262.683594 138.59375 262.628906 137.480469 262.628906 136.363281 C 262.628906 135.246094 262.683594 134.132812 262.792969 133.023438 C 262.902344 131.910156 263.066406 130.808594 263.28125 129.710938 C 263.5 128.617188 263.773438 127.535156 264.097656 126.46875 C 264.417969 125.398438 264.796875 124.347656 265.222656 123.316406 C 265.648438 122.285156 266.125 121.277344 266.652344 120.292969 C 267.179688 119.308594 267.753906 118.351562 268.375 117.421875 C 268.992188 116.496094 269.65625 115.601562 270.367188 114.738281 C 271.074219 113.875 271.824219 113.046875 272.613281 112.257812 C 273.402344 111.46875 274.230469 110.71875 275.089844 110.011719 C 275.953125 109.300781 276.851562 108.636719 277.777344 108.019531 C 278.707031 107.398438 279.664062 106.824219 280.648438 106.296875 C 281.632812 105.773438 282.640625 105.296875 283.671875 104.867188 C 284.703125 104.441406 285.753906 104.066406 286.824219 103.742188 C 287.890625 103.417969 288.972656 103.144531 290.066406 102.929688 C 291.164062 102.710938 292.265625 102.546875 293.378906 102.4375 C 294.488281 102.328125 295.601562 102.273438 296.71875 102.273438 C 297.835938 102.273438 298.949219 102.328125 300.058594 102.4375 C 301.171875 102.546875 302.273438 102.710938 303.371094 102.929688 C 304.464844 103.144531 305.546875 103.417969 306.613281 103.742188 C 307.683594 104.066406 308.734375 104.441406 309.765625 104.867188 C 310.796875 105.296875 311.804688 105.773438 312.789062 106.296875 C 313.773438 106.824219 314.730469 107.398438 315.660156 108.019531 C 316.585938 108.636719 317.484375 109.300781 318.347656 110.011719 C 319.207031 110.71875 320.035156 111.46875 320.824219 112.257812 C 321.613281 113.046875 322.363281 113.875 323.070312 114.738281 C 323.78125 115.601562 324.445312 116.496094 325.0625 117.421875 C 325.683594 118.351562 326.257812 119.308594 326.785156 120.292969 C 327.308594 121.277344 327.789062 122.285156 328.214844 123.316406 C 328.640625 124.347656 329.015625 125.398438 329.339844 126.46875 C 329.664062 127.535156 329.9375 128.617188 330.15625 129.710938 C 330.371094 130.808594 330.535156 131.910156 330.644531 133.023438 C 330.753906 134.132812 330.808594 135.246094 330.808594 136.363281 Z M 330.808594 136.363281 " fill-opacity="1" fill-rule="nonzero"/></g><g clip-path="url(#c73b5c70e4)"><path fill="#ffffff" d="M 105.808594 238.636719 C 105.808594 239.753906 105.753906 240.867188 105.644531 241.976562 C 105.535156 243.089844 105.371094 244.191406 105.15625 245.289062 C 104.9375 246.382812 104.664062 247.464844 104.339844 248.53125 C 104.019531 249.601562 103.640625 250.652344 103.214844 251.683594 C 102.789062 252.714844 102.3125 253.722656 101.785156 254.707031 C 101.257812 255.691406 100.683594 256.648438 100.0625 257.578125 C 99.445312 258.503906 98.78125 259.398438 98.070312 260.261719 C 97.363281 261.125 96.613281 261.953125 95.824219 262.742188 C 95.035156 263.53125 94.207031 264.28125 93.347656 264.988281 C 92.484375 265.699219 91.585938 266.363281 90.660156 266.980469 C 89.730469 267.601562 88.773438 268.175781 87.789062 268.703125 C 86.804688 269.226562 85.796875 269.703125 84.765625 270.132812 C 83.734375 270.558594 82.683594 270.933594 81.613281 271.257812 C 80.546875 271.582031 79.464844 271.855469 78.371094 272.070312 C 77.273438 272.289062 76.171875 272.453125 75.058594 272.5625 C 73.949219 272.671875 72.835938 272.726562 71.71875 272.726562 C 70.601562 272.726562 69.488281 272.671875 68.378906 272.5625 C 67.265625 272.453125 66.164062 272.289062 65.066406 272.070312 C 63.972656 271.855469 62.890625 271.582031 61.824219 271.257812 C 60.753906 270.933594 59.703125 270.558594 58.671875 270.132812 C 57.640625 269.703125 56.632812 269.226562 55.648438 268.703125 C 54.664062 268.175781 53.707031 267.601562 52.777344 266.980469 C 51.851562 266.363281 50.953125 265.699219 50.089844 264.988281 C 49.230469 264.28125 48.402344 263.53125 47.613281 262.742188 C 46.824219 261.953125 46.074219 261.125 45.367188 260.261719 C 44.65625 259.398438 43.992188 258.503906 43.375 257.578125 C 42.753906 256.648438 42.179688 255.691406 41.652344 254.707031 C 41.125 253.722656 40.648438 252.714844 40.222656 251.683594 C 39.796875 250.652344 39.417969 249.601562 39.097656 248.53125 C 38.773438 247.464844 38.5 246.382812 38.28125 245.289062 C 38.066406 244.191406 37.902344 243.089844 37.792969 241.976562 C 37.683594 240.867188 37.628906 239.753906 37.628906 238.636719 C 37.628906 237.519531 37.683594 236.40625 37.792969 235.292969 C 37.902344 234.183594 38.066406 233.082031 38.28125 231.984375 C 38.5 230.890625 38.773438 229.808594 39.097656 228.742188 C 39.417969 227.671875 39.796875 226.621094 40.222656 225.589844 C 40.648438 224.558594 41.125 223.550781 41.652344 222.566406 C 42.179688 221.582031 42.753906 220.625 43.375 219.695312 C 43.992188 218.769531 44.65625 217.871094 45.367188 217.007812 C 46.074219 216.144531 46.824219 215.320312 47.613281 214.53125 C 48.402344 213.742188 49.230469 212.992188 50.089844 212.285156 C 50.953125 211.574219 51.851562 210.910156 52.777344 210.289062 C 53.707031 209.671875 54.664062 209.097656 55.648438 208.570312 C 56.632812 208.042969 57.640625 207.566406 58.671875 207.140625 C 59.703125 206.714844 60.753906 206.335938 61.824219 206.011719 C 62.890625 205.6875 63.972656 205.417969 65.066406 205.199219 C 66.164062 204.984375 67.265625 204.820312 68.378906 204.710938 C 69.488281 204.601562 70.601562 204.546875 71.71875 204.546875 C 72.835938 204.546875 73.949219 204.601562 75.058594 204.710938 C 76.171875 204.820312 77.273438 204.984375 78.371094 205.199219 C 79.464844 205.417969 80.546875 205.6875 81.613281 206.011719 C 82.683594 206.335938 83.734375 206.714844 84.765625 207.140625 C 85.796875 207.566406 86.804688 208.042969 87.789062 208.570312 C 88.773438 209.097656 89.730469 209.671875 90.660156 210.289062 C 91.585938 210.910156 92.484375 211.574219 93.347656 212.285156 C 94.207031 212.992188 95.035156 213.742188 95.824219 214.53125 C 96.613281 215.320312 97.363281 216.144531 98.070312 217.007812 C 98.78125 217.871094 99.445312 218.769531 100.0625 219.695312 C 100.683594 220.625 101.257812 221.582031 101.785156 222.566406 C 102.3125 223.550781 102.789062 224.558594 103.214844 225.589844 C 103.640625 226.621094 104.019531 227.671875 104.339844 228.742188 C 104.664062 229.808594 104.9375 230.890625 105.15625 231.984375 C 105.371094 233.082031 105.535156 234.183594 105.644531 235.292969 C 105.753906 236.40625 105.808594 237.519531 105.808594 238.636719 Z M 105.808594 238.636719 " fill-opacity="1" fill-rule="nonzero"/></g><path fill="#ffffff" d="M 255.808594 238.636719 C 255.808594 239.753906 255.753906 240.867188 255.644531 241.976562 C 255.535156 243.089844 255.371094 244.191406 255.15625 245.289062 C 254.9375 246.382812 254.664062 247.464844 254.339844 248.53125 C 254.015625 249.601562 253.640625 250.652344 253.214844 251.683594 C 252.789062 252.714844 252.308594 253.722656 251.785156 254.707031 C 251.257812 255.691406 250.683594 256.648438 250.0625 257.578125 C 249.445312 258.503906 248.78125 259.398438 248.070312 260.261719 C 247.363281 261.125 246.613281 261.953125 245.824219 262.742188 C 245.035156 263.53125 244.207031 264.28125 243.347656 264.988281 C 242.484375 265.699219 241.585938 266.363281 240.660156 266.980469 C 239.730469 267.601562 238.773438 268.175781 237.789062 268.703125 C 236.804688 269.226562 235.796875 269.703125 234.765625 270.132812 C 233.734375 270.558594 232.683594 270.933594 231.613281 271.257812 C 230.546875 271.582031 229.464844 271.855469 228.371094 272.070312 C 227.273438 272.289062 226.171875 272.453125 225.058594 272.5625 C 223.949219 272.671875 222.835938 272.726562 221.71875 272.726562 C 220.601562 272.726562 219.488281 272.671875 218.378906 272.5625 C 217.265625 272.453125 216.164062 272.289062 215.066406 272.070312 C 213.972656 271.855469 212.890625 271.582031 211.824219 271.257812 C 210.753906 270.933594 209.703125 270.558594 208.671875 270.132812 C 207.640625 269.703125 206.632812 269.226562 205.648438 268.703125 C 204.664062 268.175781 203.707031 267.601562 202.777344 266.980469 C 201.851562 266.363281 200.953125 265.699219 200.089844 264.988281 C 199.230469 264.28125 198.402344 263.53125 197.613281 262.742188 C 196.824219 261.953125 196.074219 261.125 195.367188 260.261719 C 194.65625 259.398438 193.992188 258.503906 193.375 257.578125 C 192.753906 256.648438 192.179688 255.691406 191.652344 254.707031 C 191.125 253.722656 190.648438 252.714844 190.222656 251.683594 C 189.796875 250.652344 189.417969 249.601562 189.097656 248.53125 C 188.773438 247.464844 188.5 246.382812 188.28125 245.289062 C 188.066406 244.191406 187.902344 243.089844 187.792969 241.976562 C 187.683594 240.867188 187.628906 239.753906 187.628906 238.636719 C 187.628906 237.519531 187.683594 236.40625 187.792969 235.292969 C 187.902344 234.183594 188.066406 233.082031 188.28125 231.984375 C 188.5 230.890625 188.773438 229.808594 189.097656 228.742188 C 189.417969 227.671875 189.796875 226.621094 190.222656 225.589844 C 190.648438 224.558594 191.125 223.550781 191.652344 222.566406 C 192.179688 221.582031 192.753906 220.625 193.375 219.695312 C 193.992188 218.769531 194.65625 217.871094 195.367188 217.007812 C 196.074219 216.144531 196.824219 215.320312 197.613281 214.53125 C 198.402344 213.742188 199.230469 212.992188 200.089844 212.285156 C 200.953125 211.574219 201.851562 210.910156 202.777344 210.289062 C 203.707031 209.671875 204.664062 209.097656 205.648438 208.570312 C 206.632812 208.042969 207.640625 207.566406 208.671875 207.140625 C 209.703125 206.714844 210.753906 206.335938 211.824219 206.011719 C 212.890625 205.6875 213.972656 205.417969 215.066406 205.199219 C 216.164062 204.984375 217.265625 204.820312 218.378906 204.710938 C 219.488281 204.601562 220.601562 204.546875 221.71875 204.546875 C 222.835938 204.546875 223.949219 204.601562 225.058594 204.710938 C 226.171875 204.820312 227.273438 204.984375 228.371094 205.199219 C 229.464844 205.417969 230.546875 205.6875 231.613281 206.011719 C 232.683594 206.335938 233.734375 206.714844 234.765625 207.140625 C 235.796875 207.566406 236.804688 208.042969 237.789062 208.570312 C 238.773438 209.097656 239.730469 209.671875 240.660156 210.289062 C 241.585938 210.910156 242.484375 211.574219 243.347656 212.285156 C 244.207031 212.992188 245.035156 213.742188 245.824219 214.53125 C 246.613281 215.320312 247.363281 216.144531 248.070312 217.007812 C 248.78125 217.871094 249.445312 218.769531 250.0625 219.695312 C 250.683594 220.625 251.257812 221.582031 251.785156 222.566406 C 252.308594 223.550781 252.789062 224.558594 253.214844 225.589844 C 253.640625 226.621094 254.015625 227.671875 254.339844 228.742188 C 254.664062 229.808594 254.9375 230.890625 255.15625 231.984375 C 255.371094 233.082031 255.535156 234.183594 255.644531 235.292969 C 255.753906 236.40625 255.808594 237.519531 255.808594 238.636719 Z M 255.808594 238.636719 " fill-opacity="1" fill-rule="nonzero"/><path fill="#ffffff" d="M 180.808594 340.910156 C 180.808594 342.027344 180.753906 343.140625 180.644531 344.25 C 180.535156 345.363281 180.371094 346.464844 180.15625 347.558594 C 179.9375 348.65625 179.664062 349.738281 179.339844 350.804688 C 179.019531 351.875 178.640625 352.921875 178.214844 353.953125 C 177.789062 354.988281 177.308594 355.996094 176.785156 356.980469 C 176.257812 357.964844 175.683594 358.921875 175.0625 359.847656 C 174.445312 360.777344 173.78125 361.671875 173.070312 362.535156 C 172.363281 363.398438 171.613281 364.226562 170.824219 365.015625 C 170.035156 365.804688 169.207031 366.554688 168.347656 367.261719 C 167.484375 367.96875 166.585938 368.632812 165.660156 369.253906 C 164.730469 369.875 163.773438 370.449219 162.789062 370.972656 C 161.804688 371.5 160.796875 371.976562 159.765625 372.40625 C 158.734375 372.832031 157.683594 373.207031 156.613281 373.53125 C 155.546875 373.855469 154.464844 374.128906 153.371094 374.34375 C 152.273438 374.5625 151.171875 374.726562 150.058594 374.835938 C 148.949219 374.945312 147.835938 375 146.71875 375 C 145.601562 375 144.488281 374.945312 143.378906 374.835938 C 142.265625 374.726562 141.164062 374.5625 140.066406 374.34375 C 138.972656 374.128906 137.890625 373.855469 136.824219 373.53125 C 135.753906 373.207031 134.703125 372.832031 133.671875 372.40625 C 132.640625 371.976562 131.632812 371.5 130.648438 370.972656 C 129.664062 370.449219 128.707031 369.875 127.777344 369.253906 C 126.851562 368.632812 125.953125 367.96875 125.089844 367.261719 C 124.230469 366.554688 123.402344 365.804688 122.613281 365.015625 C 121.824219 364.226562 121.074219 363.398438 120.367188 362.535156 C 119.65625 361.671875 118.992188 360.777344 118.375 359.847656 C 117.753906 358.921875 117.179688 357.964844 116.652344 356.980469 C 116.125 355.996094 115.648438 354.988281 115.222656 353.953125 C 114.796875 352.921875 114.417969 351.875 114.097656 350.804688 C 113.773438 349.738281 113.5 348.65625 113.28125 347.558594 C 113.066406 346.464844 112.902344 345.363281 112.792969 344.25 C 112.683594 343.140625 112.628906 342.027344 112.628906 340.910156 C 112.628906 339.792969 112.683594 338.679688 112.792969 337.566406 C 112.902344 336.457031 113.066406 335.351562 113.28125 334.257812 C 113.5 333.164062 113.773438 332.082031 114.097656 331.011719 C 114.417969 329.945312 114.796875 328.894531 115.222656 327.863281 C 115.648438 326.832031 116.125 325.824219 116.652344 324.839844 C 117.179688 323.855469 117.753906 322.898438 118.375 321.96875 C 118.992188 321.039062 119.65625 320.144531 120.367188 319.28125 C 121.074219 318.417969 121.824219 317.59375 122.613281 316.804688 C 123.402344 316.011719 124.230469 315.265625 125.089844 314.554688 C 125.953125 313.847656 126.851562 313.183594 127.777344 312.5625 C 128.707031 311.941406 129.664062 311.371094 130.648438 310.84375 C 131.632812 310.316406 132.640625 309.839844 133.671875 309.414062 C 134.703125 308.984375 135.753906 308.609375 136.824219 308.285156 C 137.890625 307.960938 138.972656 307.691406 140.066406 307.472656 C 141.164062 307.253906 142.265625 307.089844 143.378906 306.980469 C 144.488281 306.871094 145.601562 306.816406 146.71875 306.816406 C 147.835938 306.816406 148.949219 306.871094 150.058594 306.980469 C 151.171875 307.089844 152.273438 307.253906 153.371094 307.472656 C 154.464844 307.691406 155.546875 307.960938 156.613281 308.285156 C 157.683594 308.609375 158.734375 308.984375 159.765625 309.414062 C 160.796875 309.839844 161.804688 310.316406 162.789062 310.84375 C 163.773438 311.371094 164.730469 311.941406 165.660156 312.5625 C 166.585938 313.183594 167.484375 313.847656 168.347656 314.554688 C 169.207031 315.265625 170.035156 316.011719 170.824219 316.804688 C 171.613281 317.59375 172.363281 318.417969 173.070312 319.28125 C 173.78125 320.144531 174.445312 321.039062 175.0625 321.96875 C 175.683594 322.898438 176.257812 323.855469 176.785156 324.839844 C 177.308594 325.824219 177.789062 326.832031 178.214844 327.863281 C 178.640625 328.894531 179.019531 329.945312 179.339844 331.011719 C 179.664062 332.082031 179.9375 333.164062 180.15625 334.257812 C 180.371094 335.351562 180.535156 336.457031 180.644531 337.566406 C 180.753906 338.679688 180.808594 339.792969 180.808594 340.910156 Z M 180.808594 340.910156 " fill-opacity="1" fill-rule="nonzero"/><g clip-path="url(#ae7f21da3a)"><path fill="#ffffff" d="M 330.808594 340.910156 C 330.808594 342.027344 330.753906 343.140625 330.644531 344.25 C 330.535156 345.363281 330.371094 346.464844 330.15625 347.558594 C 329.9375 348.65625 329.664062 349.738281 329.339844 350.804688 C 329.015625 351.875 328.640625 352.921875 328.214844 353.953125 C 327.789062 354.988281 327.308594 355.996094 326.785156 356.980469 C 326.257812 357.964844 325.683594 358.921875 325.0625 359.847656 C 324.445312 360.777344 323.78125 361.671875 323.070312 362.535156 C 322.363281 363.398438 321.613281 364.226562 320.824219 365.015625 C 320.035156 365.804688 319.207031 366.554688 318.347656 367.261719 C 317.484375 367.96875 316.585938 368.632812 315.660156 369.253906 C 314.730469 369.875 313.773438 370.449219 312.789062 370.972656 C 311.804688 371.5 310.796875 371.976562 309.765625 372.40625 C 308.734375 372.832031 307.683594 373.207031 306.613281 373.53125 C 305.546875 373.855469 304.464844 374.128906 303.371094 374.34375 C 302.273438 374.5625 301.171875 374.726562 300.058594 374.835938 C 298.949219 374.945312 297.835938 375 296.71875 375 C 295.601562 375 294.488281 374.945312 293.378906 374.835938 C 292.265625 374.726562 291.164062 374.5625 290.066406 374.34375 C 288.972656 374.128906 287.890625 373.855469 286.824219 373.53125 C 285.753906 373.207031 284.703125 372.832031 283.671875 372.40625 C 282.640625 371.976562 281.632812 371.5 280.648438 370.972656 C 279.664062 370.449219 278.707031 369.875 277.777344 369.253906 C 276.851562 368.632812 275.953125 367.96875 275.089844 367.261719 C 274.230469 366.554688 273.402344 365.804688 272.613281 365.015625 C 271.824219 364.226562 271.074219 363.398438 270.367188 362.535156 C 269.65625 361.671875 268.992188 360.777344 268.375 359.847656 C 267.753906 358.921875 267.179688 357.964844 266.652344 356.980469 C 266.125 355.996094 265.648438 354.988281 265.222656 353.953125 C 264.796875 352.921875 264.417969 351.875 264.097656 350.804688 C 263.773438 349.738281 263.5 348.65625 263.28125 347.558594 C 263.066406 346.464844 262.902344 345.363281 262.792969 344.25 C 262.683594 343.140625 262.628906 342.027344 262.628906 340.910156 C 262.628906 339.792969 262.683594 338.679688 262.792969 337.566406 C 262.902344 336.457031 263.066406 335.351562 263.28125 334.257812 C 263.5 333.164062 263.773438 332.082031 264.097656 331.011719 C 264.417969 329.945312 264.796875 328.894531 265.222656 327.863281 C 265.648438 326.832031 266.125 325.824219 266.652344 324.839844 C 267.179688 323.855469 267.753906 322.898438 268.375 321.96875 C 268.992188 321.039062 269.65625 320.144531 270.367188 319.28125 C 271.074219 318.417969 271.824219 317.59375 272.613281 316.804688 C 273.402344 316.011719 274.230469 315.265625 275.089844 314.554688 C 275.953125 313.847656 276.851562 313.183594 277.777344 312.5625 C 278.707031 311.941406 279.664062 311.371094 280.648438 310.84375 C 281.632812 310.316406 282.640625 309.839844 283.671875 309.414062 C 284.703125 308.984375 285.753906 308.609375 286.824219 308.285156 C 287.890625 307.960938 288.972656 307.691406 290.066406 307.472656 C 291.164062 307.253906 292.265625 307.089844 293.378906 306.980469 C 294.488281 306.871094 295.601562 306.816406 296.71875 306.816406 C 297.835938 306.816406 298.949219 306.871094 300.058594 306.980469 C 301.171875 307.089844 302.273438 307.253906 303.371094 307.472656 C 304.464844 307.691406 305.546875 307.960938 306.613281 308.285156 C 307.683594 308.609375 308.734375 308.984375 309.765625 309.414062 C 310.796875 309.839844 311.804688 310.316406 312.789062 310.84375 C 313.773438 311.371094 314.730469 311.941406 315.660156 312.5625 C 316.585938 313.183594 317.484375 313.847656 318.347656 314.554688 C 319.207031 315.265625 320.035156 316.011719 320.824219 316.804688 C 321.613281 317.59375 322.363281 318.417969 323.070312 319.28125 C 323.78125 320.144531 324.445312 321.039062 325.0625 321.96875 C 325.683594 322.898438 326.257812 323.855469 326.785156 324.839844 C 327.308594 325.824219 327.789062 326.832031 328.214844 327.863281 C 328.640625 328.894531 329.015625 329.945312 329.339844 331.011719 C 329.664062 332.082031 329.9375 333.164062 330.15625 334.257812 C 330.371094 335.351562 330.535156 336.457031 330.644531 337.566406 C 330.753906 338.679688 330.808594 339.792969 330.808594 340.910156 Z M 330.808594 340.910156 " fill-opacity="1" fill-rule="nonzero"/></g></svg>