<svg xmlns="http://www.w3.org/2000/svg" xmlns:xlink="http://www.w3.org/1999/xlink" width="500" zoomAndPan="magnify" viewBox="0 0 375 374.999991" height="500" preserveAspectRatio="xMidYMid meet" version="1.0"><defs><clipPath id="b46fd2319c"><path d="M 223 101 L 291.082031 101 L 291.082031 170 L 223 170 Z M 223 101 " clip-rule="nonzero"/></clipPath><clipPath id="4314f5f785"><path d="M 74 304 L 143 304 L 143 372.164062 L 74 372.164062 Z M 74 304 " clip-rule="nonzero"/></clipPath><clipPath id="7230ab42b8"><path d="M 223 304 L 291.082031 304 L 291.082031 372.164062 L 223 372.164062 Z M 223 304 " clip-rule="nonzero"/></clipPath><clipPath id="ec68d54b5c"><path d="M 257 193 L 350 193 L 350 307 L 257 307 Z M 257 193 " clip-rule="nonzero"/></clipPath><clipPath id="5345b15383"><path d="M 261.246094 186.082031 L 374.863281 207.070312 L 354.542969 317.101562 L 240.921875 296.113281 Z M 261.246094 186.082031 " clip-rule="nonzero"/></clipPath><clipPath id="ecbd522d3d"><path d="M 374.996094 207.09375 L 261.375 186.105469 L 241.054688 296.136719 L 354.671875 317.125 Z M 374.996094 207.09375 " clip-rule="nonzero"/></clipPath><clipPath id="b3bd7c54c3"><path d="M 279 204 L 322 204 L 322 221 L 279 221 Z M 279 204 " clip-rule="nonzero"/></clipPath><clipPath id="aa2810312b"><path d="M 261.246094 186.082031 L 374.863281 207.070312 L 354.542969 317.101562 L 240.921875 296.113281 Z M 261.246094 186.082031 " clip-rule="nonzero"/></clipPath><clipPath id="95b6789d9d"><path d="M 374.996094 207.09375 L 261.375 186.105469 L 241.054688 296.136719 L 354.671875 317.125 Z M 374.996094 207.09375 " clip-rule="nonzero"/></clipPath><clipPath id="cc70ec61d5"><path d="M 340 301 L 356 301 L 356 316 L 340 316 Z M 340 301 " clip-rule="nonzero"/></clipPath><clipPath id="5beb70b45d"><path d="M 261.246094 186.082031 L 374.863281 207.070312 L 354.542969 317.101562 L 240.921875 296.113281 Z M 261.246094 186.082031 " clip-rule="nonzero"/></clipPath><clipPath id="1b36f17c67"><path d="M 374.996094 207.09375 L 261.375 186.105469 L 241.054688 296.136719 L 354.671875 317.125 Z M 374.996094 207.09375 " clip-rule="nonzero"/></clipPath></defs><path fill="#fefefe" d="M 156.710938 55.074219 L 117.566406 102.921875 C 122.113281 104.210938 126.234375 106.410156 129.792969 109.34375 L 167.125 63.707031 C 167.472656 63.890625 167.84375 64.027344 168.195312 64.195312 C 163.707031 62.03125 159.824219 58.902344 156.710938 55.074219 Z M 156.710938 55.074219 " fill-opacity="1" fill-rule="nonzero"/><path fill="#fefefe" d="M 248.082031 102.925781 L 208.9375 55.082031 C 205.816406 58.902344 201.941406 62.035156 197.453125 64.207031 C 197.804688 64.039062 198.171875 63.902344 198.523438 63.722656 L 235.855469 109.355469 C 239.414062 106.410156 243.535156 104.21875 248.082031 102.925781 Z M 248.082031 102.925781 " fill-opacity="1" fill-rule="nonzero"/><path fill="#fefefe" d="M 173.648438 204.425781 L 134.503906 156.578125 C 131.382812 160.402344 127.507812 163.535156 123.019531 165.707031 C 123.371094 165.539062 123.738281 165.402344 124.089844 165.222656 L 161.421875 210.855469 C 164.980469 207.910156 169.101562 205.71875 173.648438 204.425781 Z M 173.648438 204.425781 " fill-opacity="1" fill-rule="nonzero"/><path fill="#fefefe" d="M 82.277344 156.574219 L 43.132812 204.421875 C 47.679688 205.710938 51.800781 207.910156 55.363281 210.839844 L 92.691406 165.207031 C 93.039062 165.390625 93.410156 165.523438 93.761719 165.695312 C 89.277344 163.527344 85.390625 160.402344 82.277344 156.574219 Z M 82.277344 156.574219 " fill-opacity="1" fill-rule="nonzero"/><path fill="#fefefe" d="M 156.710938 258.074219 L 117.566406 305.917969 C 122.113281 307.210938 126.234375 309.410156 129.792969 312.339844 L 167.125 266.707031 C 167.472656 266.890625 167.84375 267.023438 168.195312 267.195312 C 163.707031 265.027344 159.824219 261.902344 156.710938 258.074219 Z M 156.710938 258.074219 " fill-opacity="1" fill-rule="nonzero"/><path fill="#fefefe" d="M 248.082031 305.925781 L 208.9375 258.078125 C 205.816406 261.902344 201.941406 265.035156 197.453125 267.207031 C 197.804688 267.039062 198.171875 266.902344 198.523438 266.71875 L 235.855469 312.355469 C 239.414062 309.410156 243.535156 307.21875 248.082031 305.925781 Z M 248.082031 305.925781 " fill-opacity="1" fill-rule="nonzero"/><path fill="#fefefe" d="M 216.65625 33.832031 C 216.65625 34.941406 216.601562 36.046875 216.496094 37.148438 C 216.386719 38.253906 216.222656 39.347656 216.007812 40.433594 C 215.792969 41.519531 215.523438 42.59375 215.199219 43.65625 C 214.878906 44.714844 214.507812 45.757812 214.082031 46.78125 C 213.660156 47.804688 213.183594 48.804688 212.664062 49.78125 C 212.140625 50.757812 211.570312 51.707031 210.957031 52.628906 C 210.339844 53.550781 209.679688 54.441406 208.976562 55.296875 C 208.273438 56.152344 207.53125 56.972656 206.75 57.757812 C 205.964844 58.539062 205.144531 59.285156 204.289062 59.988281 C 203.429688 60.691406 202.542969 61.347656 201.621094 61.964844 C 200.699219 62.578125 199.75 63.148438 198.773438 63.671875 C 197.796875 64.195312 196.796875 64.667969 195.773438 65.089844 C 194.75 65.515625 193.707031 65.886719 192.644531 66.210938 C 191.585938 66.53125 190.511719 66.800781 189.425781 67.015625 C 188.339844 67.230469 187.242188 67.394531 186.140625 67.503906 C 185.039062 67.613281 183.933594 67.667969 182.824219 67.667969 C 181.714844 67.667969 180.609375 67.613281 179.507812 67.503906 C 178.40625 67.394531 177.3125 67.230469 176.222656 67.015625 C 175.136719 66.800781 174.0625 66.53125 173.003906 66.210938 C 171.941406 65.886719 170.902344 65.515625 169.878906 65.089844 C 168.851562 64.667969 167.851562 64.195312 166.875 63.671875 C 165.898438 63.148438 164.949219 62.578125 164.027344 61.964844 C 163.105469 61.347656 162.21875 60.691406 161.359375 59.988281 C 160.503906 59.285156 159.683594 58.539062 158.902344 57.757812 C 158.117188 56.972656 157.375 56.152344 156.671875 55.296875 C 155.96875 54.441406 155.308594 53.550781 154.691406 52.628906 C 154.078125 51.707031 153.507812 50.757812 152.988281 49.78125 C 152.464844 48.804688 151.992188 47.804688 151.566406 46.78125 C 151.144531 45.757812 150.769531 44.714844 150.449219 43.65625 C 150.125 42.59375 149.859375 41.519531 149.640625 40.433594 C 149.425781 39.347656 149.261719 38.253906 149.152344 37.148438 C 149.046875 36.046875 148.992188 34.941406 148.992188 33.832031 C 148.992188 32.726562 149.046875 31.621094 149.152344 30.515625 C 149.261719 29.414062 149.425781 28.320312 149.640625 27.234375 C 149.859375 26.144531 150.125 25.074219 150.449219 24.011719 C 150.769531 22.953125 151.144531 21.910156 151.566406 20.886719 C 151.992188 19.863281 152.464844 18.863281 152.988281 17.882812 C 153.507812 16.90625 154.078125 15.957031 154.691406 15.035156 C 155.308594 14.113281 155.96875 13.226562 156.671875 12.371094 C 157.375 11.511719 158.117188 10.691406 158.902344 9.910156 C 159.683594 9.125 160.503906 8.382812 161.359375 7.679688 C 162.21875 6.976562 163.105469 6.316406 164.027344 5.703125 C 164.949219 5.085938 165.898438 4.515625 166.875 3.996094 C 167.851562 3.472656 168.851562 3 169.878906 2.574219 C 170.902344 2.152344 171.941406 1.777344 173.003906 1.457031 C 174.0625 1.136719 175.136719 0.867188 176.222656 0.648438 C 177.3125 0.433594 178.40625 0.273438 179.507812 0.164062 C 180.609375 0.0546875 181.714844 0 182.824219 0 C 183.933594 0 185.039062 0.0546875 186.140625 0.164062 C 187.242188 0.273438 188.339844 0.433594 189.425781 0.648438 C 190.511719 0.867188 191.585938 1.136719 192.644531 1.457031 C 193.707031 1.777344 194.75 2.152344 195.773438 2.574219 C 196.796875 3 197.796875 3.472656 198.773438 3.996094 C 199.75 4.515625 200.699219 5.085938 201.621094 5.703125 C 202.542969 6.316406 203.429688 6.976562 204.289062 7.679688 C 205.144531 8.382812 205.964844 9.125 206.75 9.910156 C 207.53125 10.691406 208.273438 11.511719 208.976562 12.371094 C 209.679688 13.226562 210.339844 14.113281 210.957031 15.035156 C 211.570312 15.957031 212.140625 16.90625 212.664062 17.882812 C 213.183594 18.863281 213.660156 19.863281 214.082031 20.886719 C 214.507812 21.910156 214.878906 22.953125 215.199219 24.011719 C 215.523438 25.074219 215.792969 26.144531 216.007812 27.234375 C 216.222656 28.320312 216.386719 29.414062 216.496094 30.515625 C 216.601562 31.621094 216.65625 32.726562 216.65625 33.832031 Z M 216.65625 33.832031 " fill-opacity="1" fill-rule="nonzero"/><path fill="#ffffff" d="M 142.226562 135.332031 C 142.226562 136.441406 142.171875 137.546875 142.0625 138.648438 C 141.953125 139.75 141.789062 140.847656 141.574219 141.933594 C 141.359375 143.019531 141.089844 144.09375 140.769531 145.152344 C 140.445312 146.214844 140.074219 147.257812 139.648438 148.28125 C 139.226562 149.304688 138.753906 150.304688 138.230469 151.28125 C 137.707031 152.257812 137.136719 153.207031 136.523438 154.128906 C 135.90625 155.050781 135.246094 155.941406 134.546875 156.796875 C 133.84375 157.652344 133.097656 158.472656 132.316406 159.257812 C 131.53125 160.039062 130.710938 160.78125 129.855469 161.484375 C 129 162.1875 128.109375 162.847656 127.1875 163.464844 C 126.265625 164.078125 125.316406 164.648438 124.339844 165.171875 C 123.363281 165.691406 122.363281 166.167969 121.339844 166.589844 C 120.316406 167.015625 119.273438 167.386719 118.210938 167.707031 C 117.152344 168.03125 116.078125 168.300781 114.992188 168.515625 C 113.90625 168.730469 112.8125 168.894531 111.707031 169.003906 C 110.605469 169.113281 109.5 169.164062 108.390625 169.164062 C 107.285156 169.164062 106.179688 169.113281 105.074219 169.003906 C 103.972656 168.894531 102.878906 168.730469 101.792969 168.515625 C 100.703125 168.300781 99.628906 168.03125 98.570312 167.707031 C 97.511719 167.386719 96.46875 167.015625 95.445312 166.589844 C 94.421875 166.167969 93.421875 165.691406 92.441406 165.171875 C 91.464844 164.648438 90.515625 164.078125 89.59375 163.464844 C 88.671875 162.847656 87.785156 162.1875 86.929688 161.484375 C 86.070312 160.78125 85.25 160.039062 84.46875 159.257812 C 83.683594 158.472656 82.941406 157.652344 82.238281 156.796875 C 81.535156 155.941406 80.875 155.050781 80.261719 154.128906 C 79.644531 153.207031 79.074219 152.257812 78.554688 151.28125 C 78.03125 150.304688 77.558594 149.304688 77.132812 148.28125 C 76.710938 147.257812 76.335938 146.214844 76.015625 145.152344 C 75.695312 144.09375 75.425781 143.019531 75.207031 141.933594 C 74.992188 140.847656 74.828125 139.75 74.722656 138.648438 C 74.613281 137.546875 74.558594 136.441406 74.558594 135.332031 C 74.558594 134.222656 74.613281 133.121094 74.722656 132.015625 C 74.828125 130.914062 74.992188 129.820312 75.207031 128.730469 C 75.425781 127.644531 75.695312 126.570312 76.015625 125.511719 C 76.335938 124.449219 76.710938 123.410156 77.132812 122.386719 C 77.558594 121.363281 78.03125 120.359375 78.554688 119.382812 C 79.074219 118.40625 79.644531 117.457031 80.261719 116.535156 C 80.875 115.613281 81.535156 114.726562 82.238281 113.867188 C 82.941406 113.011719 83.683594 112.191406 84.46875 111.410156 C 85.25 110.625 86.070312 109.882812 86.929688 109.179688 C 87.785156 108.476562 88.671875 107.816406 89.59375 107.203125 C 90.515625 106.585938 91.464844 106.015625 92.441406 105.496094 C 93.421875 104.972656 94.421875 104.5 95.445312 104.074219 C 96.46875 103.652344 97.511719 103.277344 98.570312 102.957031 C 99.628906 102.632812 100.703125 102.367188 101.792969 102.148438 C 102.878906 101.933594 103.972656 101.769531 105.074219 101.664062 C 106.179688 101.554688 107.285156 101.5 108.390625 101.5 C 109.5 101.5 110.605469 101.554688 111.707031 101.664062 C 112.8125 101.769531 113.90625 101.933594 114.992188 102.148438 C 116.078125 102.367188 117.152344 102.632812 118.210938 102.957031 C 119.273438 103.277344 120.316406 103.652344 121.339844 104.074219 C 122.363281 104.5 123.363281 104.972656 124.339844 105.496094 C 125.316406 106.015625 126.265625 106.585938 127.1875 107.203125 C 128.109375 107.816406 129 108.476562 129.855469 109.179688 C 130.710938 109.882812 131.53125 110.625 132.316406 111.410156 C 133.097656 112.191406 133.84375 113.011719 134.546875 113.867188 C 135.246094 114.726562 135.90625 115.613281 136.523438 116.535156 C 137.136719 117.457031 137.707031 118.40625 138.230469 119.382812 C 138.753906 120.359375 139.226562 121.363281 139.648438 122.386719 C 140.074219 123.410156 140.445312 124.449219 140.769531 125.511719 C 141.089844 126.570312 141.359375 127.644531 141.574219 128.730469 C 141.789062 129.820312 141.953125 130.914062 142.0625 132.015625 C 142.171875 133.121094 142.226562 134.222656 142.226562 135.332031 Z M 142.226562 135.332031 " fill-opacity="1" fill-rule="nonzero"/><g clip-path="url(#b46fd2319c)"><path fill="#ffffff" d="M 291.089844 135.332031 C 291.089844 136.441406 291.035156 137.546875 290.929688 138.648438 C 290.820312 139.75 290.65625 140.847656 290.441406 141.933594 C 290.222656 143.019531 289.957031 144.09375 289.632812 145.152344 C 289.3125 146.214844 288.9375 147.257812 288.515625 148.28125 C 288.089844 149.304688 287.617188 150.304688 287.09375 151.28125 C 286.574219 152.257812 286.003906 153.207031 285.390625 154.128906 C 284.773438 155.050781 284.113281 155.941406 283.410156 156.796875 C 282.707031 157.652344 281.964844 158.472656 281.179688 159.257812 C 280.398438 160.039062 279.578125 160.78125 278.722656 161.484375 C 277.863281 162.1875 276.976562 162.847656 276.054688 163.464844 C 275.132812 164.078125 274.183594 164.648438 273.207031 165.171875 C 272.230469 165.691406 271.230469 166.167969 270.203125 166.589844 C 269.179688 167.015625 268.140625 167.386719 267.078125 167.707031 C 266.019531 168.03125 264.945312 168.300781 263.859375 168.515625 C 262.769531 168.730469 261.675781 168.894531 260.574219 169.003906 C 259.472656 169.113281 258.367188 169.164062 257.257812 169.164062 C 256.148438 169.164062 255.042969 169.113281 253.941406 169.003906 C 252.839844 168.894531 251.742188 168.730469 250.65625 168.515625 C 249.570312 168.300781 248.496094 168.03125 247.4375 167.707031 C 246.375 167.386719 245.332031 167.015625 244.308594 166.589844 C 243.285156 166.167969 242.285156 165.691406 241.308594 165.171875 C 240.332031 164.648438 239.382812 164.078125 238.460938 163.464844 C 237.539062 162.847656 236.652344 162.1875 235.792969 161.484375 C 234.9375 160.78125 234.117188 160.039062 233.332031 159.257812 C 232.550781 158.472656 231.808594 157.652344 231.105469 156.796875 C 230.402344 155.941406 229.742188 155.050781 229.125 154.128906 C 228.511719 153.207031 227.941406 152.257812 227.417969 151.28125 C 226.898438 150.304688 226.421875 149.304688 226 148.28125 C 225.574219 147.257812 225.203125 146.214844 224.882812 145.152344 C 224.558594 144.09375 224.289062 143.019531 224.074219 141.933594 C 223.859375 140.847656 223.695312 139.75 223.585938 138.648438 C 223.480469 137.546875 223.425781 136.441406 223.425781 135.332031 C 223.425781 134.222656 223.480469 133.121094 223.585938 132.015625 C 223.695312 130.914062 223.859375 129.820312 224.074219 128.730469 C 224.289062 127.644531 224.558594 126.570312 224.882812 125.511719 C 225.203125 124.449219 225.574219 123.410156 226 122.386719 C 226.421875 121.363281 226.898438 120.359375 227.417969 119.382812 C 227.941406 118.40625 228.511719 117.457031 229.125 116.535156 C 229.742188 115.613281 230.402344 114.726562 231.105469 113.867188 C 231.808594 113.011719 232.550781 112.191406 233.332031 111.410156 C 234.117188 110.625 234.9375 109.882812 235.792969 109.179688 C 236.652344 108.476562 237.539062 107.816406 238.460938 107.203125 C 239.382812 106.585938 240.332031 106.015625 241.308594 105.496094 C 242.285156 104.972656 243.285156 104.5 244.308594 104.074219 C 245.332031 103.652344 246.375 103.277344 247.4375 102.957031 C 248.496094 102.632812 249.570312 102.367188 250.65625 102.148438 C 251.742188 101.933594 252.839844 101.769531 253.941406 101.664062 C 255.042969 101.554688 256.148438 101.5 257.257812 101.5 C 258.367188 101.5 259.472656 101.554688 260.574219 101.664062 C 261.675781 101.769531 262.769531 101.933594 263.859375 102.148438 C 264.945312 102.367188 266.019531 102.632812 267.078125 102.957031 C 268.140625 103.277344 269.179688 103.652344 270.203125 104.074219 C 271.230469 104.5 272.230469 104.972656 273.207031 105.496094 C 274.183594 106.015625 275.132812 106.585938 276.054688 107.203125 C 276.976562 107.816406 277.863281 108.476562 278.722656 109.179688 C 279.578125 109.882812 280.398438 110.625 281.179688 111.410156 C 281.964844 112.191406 282.707031 113.011719 283.410156 113.867188 C 284.113281 114.726562 284.773438 115.613281 285.390625 116.535156 C 286.003906 117.457031 286.574219 118.40625 287.09375 119.382812 C 287.617188 120.359375 288.089844 121.363281 288.515625 122.386719 C 288.9375 123.410156 289.3125 124.449219 289.632812 125.511719 C 289.957031 126.570312 290.222656 127.644531 290.441406 128.730469 C 290.65625 129.820312 290.820312 130.914062 290.929688 132.015625 C 291.035156 133.121094 291.089844 134.222656 291.089844 135.332031 Z M 291.089844 135.332031 " fill-opacity="1" fill-rule="nonzero"/></g><path fill="#ffffff" d="M 67.792969 236.832031 C 67.792969 237.941406 67.738281 239.046875 67.628906 240.148438 C 67.519531 241.25 67.359375 242.347656 67.140625 243.433594 C 66.925781 244.519531 66.65625 245.59375 66.335938 246.652344 C 66.011719 247.714844 65.640625 248.753906 65.214844 249.78125 C 64.792969 250.804688 64.320312 251.804688 63.796875 252.78125 C 63.273438 253.757812 62.707031 254.707031 62.089844 255.628906 C 61.472656 256.550781 60.816406 257.4375 60.113281 258.296875 C 59.410156 259.152344 58.664062 259.972656 57.882812 260.753906 C 57.097656 261.539062 56.277344 262.28125 55.421875 262.984375 C 54.566406 263.6875 53.675781 264.347656 52.753906 264.964844 C 51.835938 265.578125 50.882812 266.148438 49.90625 266.671875 C 48.929688 267.191406 47.929688 267.664062 46.90625 268.089844 C 45.882812 268.515625 44.839844 268.886719 43.78125 269.207031 C 42.71875 269.53125 41.644531 269.800781 40.558594 270.015625 C 39.472656 270.230469 38.378906 270.394531 37.273438 270.503906 C 36.171875 270.609375 35.066406 270.664062 33.957031 270.664062 C 32.851562 270.664062 31.746094 270.609375 30.640625 270.503906 C 29.539062 270.394531 28.445312 270.230469 27.359375 270.015625 C 26.269531 269.800781 25.199219 269.53125 24.136719 269.207031 C 23.078125 268.886719 22.035156 268.515625 21.011719 268.089844 C 19.988281 267.664062 18.988281 267.191406 18.011719 266.671875 C 17.03125 266.148438 16.082031 265.578125 15.160156 264.964844 C 14.242188 264.347656 13.351562 263.6875 12.496094 262.984375 C 11.636719 262.28125 10.820312 261.539062 10.035156 260.753906 C 9.25 259.972656 8.507812 259.152344 7.804688 258.296875 C 7.101562 257.4375 6.441406 256.550781 5.828125 255.628906 C 5.210938 254.707031 4.644531 253.757812 4.121094 252.78125 C 3.597656 251.804688 3.125 250.804688 2.699219 249.78125 C 2.277344 248.753906 1.902344 247.714844 1.582031 246.652344 C 1.261719 245.59375 0.992188 244.519531 0.777344 243.433594 C 0.558594 242.347656 0.398438 241.25 0.289062 240.148438 C 0.179688 239.046875 0.125 237.941406 0.125 236.832031 C 0.125 235.722656 0.179688 234.617188 0.289062 233.515625 C 0.398438 232.414062 0.558594 231.316406 0.777344 230.230469 C 0.992188 229.144531 1.261719 228.070312 1.582031 227.011719 C 1.902344 225.949219 2.277344 224.910156 2.699219 223.882812 C 3.125 222.859375 3.597656 221.859375 4.121094 220.882812 C 4.644531 219.90625 5.210938 218.957031 5.828125 218.035156 C 6.441406 217.113281 7.101562 216.226562 7.804688 215.367188 C 8.507812 214.511719 9.25 213.691406 10.035156 212.910156 C 10.820312 212.125 11.636719 211.382812 12.496094 210.679688 C 13.351562 209.976562 14.242188 209.316406 15.160156 208.699219 C 16.082031 208.085938 17.03125 207.515625 18.011719 206.992188 C 18.988281 206.472656 19.988281 206 21.011719 205.574219 C 22.035156 205.148438 23.078125 204.777344 24.136719 204.457031 C 25.199219 204.132812 26.269531 203.863281 27.359375 203.648438 C 28.445312 203.433594 29.539062 203.269531 30.640625 203.160156 C 31.746094 203.054688 32.851562 203 33.957031 203 C 35.066406 203 36.171875 203.054688 37.273438 203.160156 C 38.378906 203.269531 39.472656 203.433594 40.558594 203.648438 C 41.644531 203.863281 42.71875 204.132812 43.78125 204.457031 C 44.839844 204.777344 45.882812 205.148438 46.90625 205.574219 C 47.929688 206 48.929688 206.472656 49.90625 206.992188 C 50.882812 207.515625 51.835938 208.085938 52.753906 208.699219 C 53.675781 209.316406 54.566406 209.976562 55.421875 210.679688 C 56.277344 211.382812 57.097656 212.125 57.882812 212.910156 C 58.664062 213.691406 59.410156 214.511719 60.113281 215.367188 C 60.816406 216.226562 61.472656 217.113281 62.089844 218.035156 C 62.707031 218.957031 63.273438 219.90625 63.796875 220.882812 C 64.320312 221.859375 64.792969 222.859375 65.214844 223.882812 C 65.640625 224.910156 66.011719 225.949219 66.335938 227.011719 C 66.65625 228.070312 66.925781 229.144531 67.140625 230.230469 C 67.359375 231.316406 67.519531 232.414062 67.628906 233.515625 C 67.738281 234.617188 67.792969 235.722656 67.792969 236.832031 Z M 67.792969 236.832031 " fill-opacity="1" fill-rule="nonzero"/><path fill="#ffffff" d="M 216.65625 236.832031 C 216.65625 237.941406 216.601562 239.046875 216.496094 240.148438 C 216.386719 241.25 216.222656 242.347656 216.007812 243.433594 C 215.792969 244.519531 215.523438 245.59375 215.199219 246.652344 C 214.878906 247.714844 214.507812 248.753906 214.082031 249.78125 C 213.660156 250.804688 213.183594 251.804688 212.664062 252.78125 C 212.140625 253.757812 211.570312 254.707031 210.957031 255.628906 C 210.339844 256.550781 209.679688 257.4375 208.976562 258.296875 C 208.273438 259.152344 207.53125 259.972656 206.75 260.753906 C 205.964844 261.539062 205.144531 262.28125 204.289062 262.984375 C 203.429688 263.6875 202.542969 264.347656 201.621094 264.964844 C 200.699219 265.578125 199.75 266.148438 198.773438 266.671875 C 197.796875 267.191406 196.796875 267.664062 195.773438 268.089844 C 194.75 268.515625 193.707031 268.886719 192.644531 269.207031 C 191.585938 269.53125 190.511719 269.800781 189.425781 270.015625 C 188.339844 270.230469 187.242188 270.394531 186.140625 270.503906 C 185.039062 270.609375 183.933594 270.664062 182.824219 270.664062 C 181.714844 270.664062 180.609375 270.609375 179.507812 270.503906 C 178.40625 270.394531 177.3125 270.230469 176.222656 270.015625 C 175.136719 269.800781 174.0625 269.53125 173.003906 269.207031 C 171.941406 268.886719 170.902344 268.515625 169.878906 268.089844 C 168.851562 267.664062 167.851562 267.191406 166.875 266.671875 C 165.898438 266.148438 164.949219 265.578125 164.027344 264.964844 C 163.105469 264.347656 162.21875 263.6875 161.359375 262.984375 C 160.503906 262.28125 159.683594 261.539062 158.902344 260.753906 C 158.117188 259.972656 157.375 259.152344 156.671875 258.296875 C 155.96875 257.4375 155.308594 256.550781 154.691406 255.628906 C 154.078125 254.707031 153.507812 253.757812 152.988281 252.78125 C 152.464844 251.804688 151.992188 250.804688 151.566406 249.78125 C 151.144531 248.753906 150.769531 247.714844 150.449219 246.652344 C 150.125 245.59375 149.859375 244.519531 149.640625 243.433594 C 149.425781 242.347656 149.261719 241.25 149.152344 240.148438 C 149.046875 239.046875 148.992188 237.941406 148.992188 236.832031 C 148.992188 235.722656 149.046875 234.617188 149.152344 233.515625 C 149.261719 232.414062 149.425781 231.316406 149.640625 230.230469 C 149.859375 229.144531 150.125 228.070312 150.449219 227.011719 C 150.769531 225.949219 151.144531 224.910156 151.566406 223.882812 C 151.992188 222.859375 152.464844 221.859375 152.988281 220.882812 C 153.507812 219.90625 154.078125 218.957031 154.691406 218.035156 C 155.308594 217.113281 155.96875 216.226562 156.671875 215.367188 C 157.375 214.511719 158.117188 213.691406 158.902344 212.910156 C 159.683594 212.125 160.503906 211.382812 161.359375 210.679688 C 162.21875 209.976562 163.105469 209.316406 164.027344 208.699219 C 164.949219 208.085938 165.898438 207.515625 166.875 206.992188 C 167.851562 206.472656 168.851562 206 169.878906 205.574219 C 170.902344 205.148438 171.941406 204.777344 173.003906 204.457031 C 174.0625 204.132812 175.136719 203.863281 176.222656 203.648438 C 177.3125 203.433594 178.40625 203.269531 179.507812 203.160156 C 180.609375 203.054688 181.714844 203 182.824219 203 C 183.933594 203 185.039062 203.054688 186.140625 203.160156 C 187.242188 203.269531 188.339844 203.433594 189.425781 203.648438 C 190.511719 203.863281 191.585938 204.132812 192.644531 204.457031 C 193.707031 204.777344 194.75 205.148438 195.773438 205.574219 C 196.796875 206 197.796875 206.472656 198.773438 206.992188 C 199.75 207.515625 200.699219 208.085938 201.621094 208.699219 C 202.542969 209.316406 203.429688 209.976562 204.289062 210.679688 C 205.144531 211.382812 205.964844 212.125 206.75 212.910156 C 207.53125 213.691406 208.273438 214.511719 208.976562 215.367188 C 209.679688 216.226562 210.339844 217.113281 210.957031 218.035156 C 211.570312 218.957031 212.140625 219.90625 212.664062 220.882812 C 213.183594 221.859375 213.660156 222.859375 214.082031 223.882812 C 214.507812 224.910156 214.878906 225.949219 215.199219 227.011719 C 215.523438 228.070312 215.792969 229.144531 216.007812 230.230469 C 216.222656 231.316406 216.386719 232.414062 216.496094 233.515625 C 216.601562 234.617188 216.65625 235.722656 216.65625 236.832031 Z M 216.65625 236.832031 " fill-opacity="1" fill-rule="nonzero"/><g clip-path="url(#4314f5f785)"><path fill="#ffffff" d="M 142.226562 338.332031 C 142.226562 339.441406 142.171875 340.546875 142.0625 341.648438 C 141.953125 342.75 141.789062 343.84375 141.574219 344.933594 C 141.359375 346.019531 141.089844 347.09375 140.769531 348.152344 C 140.445312 349.214844 140.074219 350.253906 139.648438 351.277344 C 139.226562 352.300781 138.753906 353.304688 138.230469 354.28125 C 137.707031 355.257812 137.136719 356.207031 136.523438 357.128906 C 135.90625 358.050781 135.246094 358.9375 134.546875 359.796875 C 133.84375 360.652344 133.097656 361.472656 132.316406 362.253906 C 131.53125 363.039062 130.710938 363.78125 129.855469 364.484375 C 129 365.1875 128.109375 365.847656 127.1875 366.460938 C 126.265625 367.078125 125.316406 367.648438 124.339844 368.167969 C 123.363281 368.691406 122.363281 369.164062 121.339844 369.589844 C 120.316406 370.011719 119.273438 370.386719 118.210938 370.707031 C 117.152344 371.03125 116.078125 371.296875 114.992188 371.515625 C 113.90625 371.730469 112.8125 371.894531 111.707031 372 C 110.605469 372.109375 109.5 372.164062 108.390625 372.164062 C 107.285156 372.164062 106.179688 372.109375 105.074219 372 C 103.972656 371.894531 102.878906 371.730469 101.792969 371.515625 C 100.703125 371.296875 99.628906 371.03125 98.570312 370.707031 C 97.511719 370.386719 96.46875 370.011719 95.445312 369.589844 C 94.421875 369.164062 93.421875 368.691406 92.441406 368.167969 C 91.464844 367.648438 90.515625 367.078125 89.59375 366.460938 C 88.671875 365.847656 87.785156 365.1875 86.929688 364.484375 C 86.070312 363.78125 85.25 363.039062 84.46875 362.253906 C 83.683594 361.472656 82.941406 360.652344 82.238281 359.796875 C 81.535156 358.9375 80.875 358.050781 80.261719 357.128906 C 79.644531 356.207031 79.074219 355.257812 78.554688 354.28125 C 78.03125 353.304688 77.558594 352.300781 77.132812 351.277344 C 76.710938 350.253906 76.335938 349.214844 76.015625 348.152344 C 75.695312 347.09375 75.425781 346.019531 75.207031 344.933594 C 74.992188 343.84375 74.828125 342.75 74.722656 341.648438 C 74.613281 340.546875 74.558594 339.441406 74.558594 338.332031 C 74.558594 337.222656 74.613281 336.117188 74.722656 335.015625 C 74.828125 333.914062 74.992188 332.816406 75.207031 331.730469 C 75.425781 330.644531 75.695312 329.570312 76.015625 328.511719 C 76.335938 327.449219 76.710938 326.40625 77.132812 325.382812 C 77.558594 324.359375 78.03125 323.359375 78.554688 322.382812 C 79.074219 321.40625 79.644531 320.457031 80.261719 319.535156 C 80.875 318.613281 81.535156 317.722656 82.238281 316.867188 C 82.941406 316.011719 83.683594 315.191406 84.46875 314.40625 C 85.25 313.625 86.070312 312.882812 86.929688 312.179688 C 87.785156 311.476562 88.671875 310.816406 89.59375 310.199219 C 90.515625 309.585938 91.464844 309.015625 92.441406 308.492188 C 93.421875 307.972656 94.421875 307.496094 95.445312 307.074219 C 96.46875 306.648438 97.511719 306.277344 98.570312 305.957031 C 99.628906 305.632812 100.703125 305.363281 101.792969 305.148438 C 102.878906 304.933594 103.972656 304.769531 105.074219 304.660156 C 106.179688 304.554688 107.285156 304.5 108.390625 304.5 C 109.5 304.5 110.605469 304.554688 111.707031 304.660156 C 112.8125 304.769531 113.90625 304.933594 114.992188 305.148438 C 116.078125 305.363281 117.152344 305.632812 118.210938 305.957031 C 119.273438 306.277344 120.316406 306.648438 121.339844 307.074219 C 122.363281 307.496094 123.363281 307.972656 124.339844 308.492188 C 125.316406 309.015625 126.265625 309.585938 127.1875 310.199219 C 128.109375 310.816406 129 311.476562 129.855469 312.179688 C 130.710938 312.882812 131.53125 313.625 132.316406 314.40625 C 133.097656 315.191406 133.84375 316.011719 134.546875 316.867188 C 135.246094 317.722656 135.90625 318.613281 136.523438 319.535156 C 137.136719 320.457031 137.707031 321.40625 138.230469 322.382812 C 138.753906 323.359375 139.226562 324.359375 139.648438 325.382812 C 140.074219 326.40625 140.445312 327.449219 140.769531 328.511719 C 141.089844 329.570312 141.359375 330.644531 141.574219 331.730469 C 141.789062 332.816406 141.953125 333.914062 142.0625 335.015625 C 142.171875 336.117188 142.226562 337.222656 142.226562 338.332031 Z M 142.226562 338.332031 " fill-opacity="1" fill-rule="nonzero"/></g><g clip-path="url(#7230ab42b8)"><path fill="#ffffff" d="M 291.089844 338.332031 C 291.089844 339.441406 291.035156 340.546875 290.929688 341.648438 C 290.820312 342.75 290.65625 343.84375 290.441406 344.933594 C 290.222656 346.019531 289.957031 347.09375 289.632812 348.152344 C 289.3125 349.214844 288.9375 350.253906 288.515625 351.277344 C 288.089844 352.300781 287.617188 353.304688 287.09375 354.28125 C 286.574219 355.257812 286.003906 356.207031 285.390625 357.128906 C 284.773438 358.050781 284.113281 358.9375 283.410156 359.796875 C 282.707031 360.652344 281.964844 361.472656 281.179688 362.253906 C 280.398438 363.039062 279.578125 363.78125 278.722656 364.484375 C 277.863281 365.1875 276.976562 365.847656 276.054688 366.460938 C 275.132812 367.078125 274.183594 367.648438 273.207031 368.167969 C 272.230469 368.691406 271.230469 369.164062 270.203125 369.589844 C 269.179688 370.011719 268.140625 370.386719 267.078125 370.707031 C 266.019531 371.03125 264.945312 371.296875 263.859375 371.515625 C 262.769531 371.730469 261.675781 371.894531 260.574219 372 C 259.472656 372.109375 258.367188 372.164062 257.257812 372.164062 C 256.148438 372.164062 255.042969 372.109375 253.941406 372 C 252.839844 371.894531 251.742188 371.730469 250.65625 371.515625 C 249.570312 371.296875 248.496094 371.03125 247.4375 370.707031 C 246.375 370.386719 245.332031 370.011719 244.308594 369.589844 C 243.285156 369.164062 242.285156 368.691406 241.308594 368.167969 C 240.332031 367.648438 239.382812 367.078125 238.460938 366.460938 C 237.539062 365.847656 236.652344 365.1875 235.792969 364.484375 C 234.9375 363.78125 234.117188 363.039062 233.332031 362.253906 C 232.550781 361.472656 231.808594 360.652344 231.105469 359.796875 C 230.402344 358.9375 229.742188 358.050781 229.125 357.128906 C 228.511719 356.207031 227.941406 355.257812 227.417969 354.28125 C 226.898438 353.304688 226.421875 352.300781 226 351.277344 C 225.574219 350.253906 225.203125 349.214844 224.882812 348.152344 C 224.558594 347.09375 224.289062 346.019531 224.074219 344.933594 C 223.859375 343.84375 223.695312 342.75 223.585938 341.648438 C 223.480469 340.546875 223.425781 339.441406 223.425781 338.332031 C 223.425781 337.222656 223.480469 336.117188 223.585938 335.015625 C 223.695312 333.914062 223.859375 332.816406 224.074219 331.730469 C 224.289062 330.644531 224.558594 329.570312 224.882812 328.511719 C 225.203125 327.449219 225.574219 326.40625 226 325.382812 C 226.421875 324.359375 226.898438 323.359375 227.417969 322.382812 C 227.941406 321.40625 228.511719 320.457031 229.125 319.535156 C 229.742188 318.613281 230.402344 317.722656 231.105469 316.867188 C 231.808594 316.011719 232.550781 315.191406 233.332031 314.40625 C 234.117188 313.625 234.9375 312.882812 235.792969 312.179688 C 236.652344 311.476562 237.539062 310.816406 238.460938 310.199219 C 239.382812 309.585938 240.332031 309.015625 241.308594 308.492188 C 242.285156 307.972656 243.285156 307.496094 244.308594 307.074219 C 245.332031 306.648438 246.375 306.277344 247.4375 305.957031 C 248.496094 305.632812 249.570312 305.363281 250.65625 305.148438 C 251.742188 304.933594 252.839844 304.769531 253.941406 304.660156 C 255.042969 304.554688 256.148438 304.5 257.257812 304.5 C 258.367188 304.5 259.472656 304.554688 260.574219 304.660156 C 261.675781 304.769531 262.769531 304.933594 263.859375 305.148438 C 264.945312 305.363281 266.019531 305.632812 267.078125 305.957031 C 268.140625 306.277344 269.179688 306.648438 270.203125 307.074219 C 271.230469 307.496094 272.230469 307.972656 273.207031 308.492188 C 274.183594 309.015625 275.132812 309.585938 276.054688 310.199219 C 276.976562 310.816406 277.863281 311.476562 278.722656 312.179688 C 279.578125 312.882812 280.398438 313.625 281.179688 314.40625 C 281.964844 315.191406 282.707031 316.011719 283.410156 316.867188 C 284.113281 317.722656 284.773438 318.613281 285.390625 319.535156 C 286.003906 320.457031 286.574219 321.40625 287.09375 322.382812 C 287.617188 323.359375 288.089844 324.359375 288.515625 325.382812 C 288.9375 326.40625 289.3125 327.449219 289.632812 328.511719 C 289.957031 329.570312 290.222656 330.644531 290.441406 331.730469 C 290.65625 332.816406 290.820312 333.914062 290.929688 335.015625 C 291.035156 336.117188 291.089844 337.222656 291.089844 338.332031 Z M 291.089844 338.332031 " fill-opacity="1" fill-rule="nonzero"/></g><g clip-path="url(#ec68d54b5c)"><g clip-path="url(#5345b15383)"><g clip-path="url(#ecbd522d3d)"><path fill="#ffffff" d="M 274.367188 200.511719 C 283.160156 194.457031 293.785156 192.195312 304.277344 194.132812 C 314.777344 196.074219 323.894531 201.980469 329.949219 210.777344 C 336.003906 219.566406 338.269531 230.199219 336.328125 240.699219 C 334.644531 249.828125 329.945312 257.898438 322.96875 263.835938 L 329.15625 272.824219 L 331.203125 271.414062 L 349.96875 298.675781 L 339.054688 306.1875 L 320.296875 278.925781 L 322.335938 277.515625 L 316.152344 268.527344 C 308.113281 272.929688 298.898438 274.425781 289.769531 272.742188 C 279.269531 270.800781 270.15625 264.890625 264.101562 256.089844 C 251.605469 237.9375 256.210938 213.003906 274.367188 200.511719 Z M 269.128906 252.625 C 274.257812 260.078125 281.976562 265.085938 290.878906 266.726562 C 299.773438 268.371094 308.773438 266.453125 316.226562 261.324219 C 323.671875 256.199219 328.679688 248.480469 330.324219 239.585938 C 331.96875 230.691406 330.046875 221.6875 324.921875 214.238281 C 319.796875 206.785156 312.078125 201.78125 303.175781 200.136719 C 294.28125 198.496094 285.28125 200.414062 277.828125 205.542969 C 262.449219 216.132812 258.546875 237.253906 269.128906 252.625 Z M 269.128906 252.625 " fill-opacity="1" fill-rule="nonzero"/></g></g></g><g clip-path="url(#b3bd7c54c3)"><g clip-path="url(#aa2810312b)"><g clip-path="url(#95b6789d9d)"><path fill="#ffffff" d="M 302.347656 204.617188 C 310.046875 206.039062 316.726562 210.375 321.167969 216.820312 C 321.835938 217.792969 321.585938 219.128906 320.617188 219.796875 C 319.644531 220.464844 318.308594 220.21875 317.640625 219.246094 C 313.851562 213.738281 308.144531 210.042969 301.570312 208.828125 C 294.992188 207.613281 288.34375 209.027344 282.832031 212.816406 C 282.351562 213.15625 281.773438 213.257812 281.230469 213.15625 C 280.695312 213.058594 280.195312 212.757812 279.855469 212.265625 C 279.1875 211.296875 279.433594 209.960938 280.402344 209.292969 C 286.855469 204.859375 294.648438 203.195312 302.347656 204.617188 Z M 302.347656 204.617188 " fill-opacity="1" fill-rule="nonzero"/></g></g></g><g clip-path="url(#cc70ec61d5)"><g clip-path="url(#5beb70b45d)"><g clip-path="url(#1b36f17c67)"><path fill="#ffffff" d="M 354.367188 305.074219 C 356.285156 307.851562 355.582031 311.660156 352.800781 313.566406 L 351.953125 314.15625 C 349.171875 316.066406 345.367188 315.363281 343.453125 312.585938 L 340.875 308.839844 L 351.789062 301.328125 Z M 354.367188 305.074219 " fill-opacity="1" fill-rule="nonzero"/></g></g></g></svg>