<svg xmlns="http://www.w3.org/2000/svg" xmlns:xlink="http://www.w3.org/1999/xlink" width="1920" zoomAndPan="magnify" viewBox="0 0 1440 809.999993" height="1080" preserveAspectRatio="xMidYMid meet" version="1.0"><defs><clipPath id="366091e004"><path d="M 648 60.75 L 774 60.75 L 774 186 L 648 186 Z M 648 60.75 " clip-rule="nonzero"/></clipPath><clipPath id="9a86a73779"><path d="M 786 248 L 911.628906 248 L 911.628906 374 L 786 374 Z M 786 248 " clip-rule="nonzero"/></clipPath><clipPath id="dac9b42764"><path d="M 373.128906 436 L 499 436 L 499 562 L 373.128906 562 Z M 373.128906 436 " clip-rule="nonzero"/></clipPath><clipPath id="17ee2b07b6"><path d="M 511 624 L 637 624 L 637 749.25 L 511 749.25 Z M 511 624 " clip-rule="nonzero"/></clipPath><clipPath id="759f8d88d2"><path d="M 786 624 L 911.628906 624 L 911.628906 749.25 L 786 749.25 Z M 786 624 " clip-rule="nonzero"/></clipPath><clipPath id="16e2ccb4ef"><path d="M 848 418 L 1021 418 L 1021 628 L 848 628 Z M 848 418 " clip-rule="nonzero"/></clipPath><clipPath id="2166fd5b83"><path d="M 856.429688 405 L 1066.621094 443.824219 L 1029.023438 647.382812 L 818.832031 608.558594 Z M 856.429688 405 " clip-rule="nonzero"/></clipPath><clipPath id="917e019508"><path d="M 1066.863281 443.871094 L 856.671875 405.046875 L 819.074219 608.601562 L 1029.265625 647.425781 Z M 1066.863281 443.871094 " clip-rule="nonzero"/></clipPath><clipPath id="6fab549292"><path d="M 890 438 L 968 438 L 968 469 L 890 469 Z M 890 438 " clip-rule="nonzero"/></clipPath><clipPath id="37ae6ad1a8"><path d="M 856.429688 405 L 1066.621094 443.824219 L 1029.023438 647.382812 L 818.832031 608.558594 Z M 856.429688 405 " clip-rule="nonzero"/></clipPath><clipPath id="418f1d1727"><path d="M 1066.863281 443.871094 L 856.671875 405.046875 L 819.074219 608.601562 L 1029.265625 647.425781 Z M 1066.863281 443.871094 " clip-rule="nonzero"/></clipPath><clipPath id="b44d323cd0"><path d="M 1003 618 L 1031 618 L 1031 644 L 1003 644 Z M 1003 618 " clip-rule="nonzero"/></clipPath><clipPath id="9eeec99f7d"><path d="M 856.429688 405 L 1066.621094 443.824219 L 1029.023438 647.382812 L 818.832031 608.558594 Z M 856.429688 405 " clip-rule="nonzero"/></clipPath><clipPath id="e448428979"><path d="M 1066.863281 443.871094 L 856.671875 405.046875 L 819.074219 608.601562 L 1029.265625 647.425781 Z M 1066.863281 443.871094 " clip-rule="nonzero"/></clipPath></defs><path fill="#fefefe" d="M 663.042969 162.636719 L 590.625 251.152344 C 599.039062 253.542969 606.660156 257.609375 613.246094 263.03125 L 682.308594 178.609375 C 682.945312 178.945312 683.636719 179.195312 684.285156 179.511719 C 675.988281 175.503906 668.800781 169.722656 663.042969 162.636719 Z M 663.042969 162.636719 " fill-opacity="1" fill-rule="nonzero"/><path fill="#fefefe" d="M 832.074219 251.164062 L 759.65625 162.648438 C 753.886719 169.722656 746.714844 175.515625 738.414062 179.535156 C 739.066406 179.222656 739.742188 178.972656 740.394531 178.632812 L 809.457031 263.054688 C 816.039062 257.609375 823.664062 253.554688 832.074219 251.164062 Z M 832.074219 251.164062 " fill-opacity="1" fill-rule="nonzero"/><path fill="#fefefe" d="M 694.375 438.9375 L 621.957031 350.421875 C 616.1875 357.492188 609.015625 363.289062 600.714844 367.308594 C 601.367188 366.996094 602.042969 366.746094 602.691406 366.40625 L 671.753906 450.828125 C 678.339844 445.382812 685.964844 441.328125 694.375 438.9375 Z M 694.375 438.9375 " fill-opacity="1" fill-rule="nonzero"/><path fill="#fefefe" d="M 525.34375 350.40625 L 452.925781 438.925781 C 461.335938 441.316406 468.960938 445.382812 475.546875 450.804688 L 544.609375 366.382812 C 545.246094 366.71875 545.933594 366.96875 546.585938 367.28125 C 538.285156 363.277344 531.101562 357.492188 525.34375 350.40625 Z M 525.34375 350.40625 " fill-opacity="1" fill-rule="nonzero"/><path fill="#fefefe" d="M 663.042969 538.179688 L 590.625 626.695312 C 599.039062 629.089844 606.660156 633.15625 613.246094 638.578125 L 682.308594 554.152344 C 682.945312 554.492188 683.636719 554.742188 684.285156 555.054688 C 675.988281 551.050781 668.800781 545.265625 663.042969 538.179688 Z M 663.042969 538.179688 " fill-opacity="1" fill-rule="nonzero"/><path fill="#fefefe" d="M 832.074219 626.710938 L 759.65625 538.195312 C 753.886719 545.265625 746.714844 551.0625 738.414062 555.082031 C 739.066406 554.765625 739.742188 554.515625 740.394531 554.179688 L 809.457031 638.601562 C 816.039062 633.15625 823.664062 629.101562 832.074219 626.710938 Z M 832.074219 626.710938 " fill-opacity="1" fill-rule="nonzero"/><g clip-path="url(#366091e004)"><path fill="#fefefe" d="M 773.941406 123.339844 C 773.941406 125.390625 773.839844 127.4375 773.640625 129.476562 C 773.4375 131.515625 773.136719 133.542969 772.738281 135.550781 C 772.339844 137.5625 771.839844 139.546875 771.246094 141.511719 C 770.652344 143.472656 769.960938 145.398438 769.175781 147.292969 C 768.390625 149.1875 767.515625 151.039062 766.550781 152.847656 C 765.585938 154.652344 764.53125 156.410156 763.394531 158.113281 C 762.253906 159.820312 761.035156 161.464844 759.734375 163.046875 C 758.433594 164.632812 757.058594 166.148438 755.609375 167.597656 C 754.160156 169.050781 752.640625 170.425781 751.058594 171.722656 C 749.472656 173.023438 747.828125 174.246094 746.125 175.382812 C 744.417969 176.523438 742.664062 177.574219 740.855469 178.542969 C 739.046875 179.507812 737.195312 180.382812 735.304688 181.167969 C 733.410156 181.953125 731.480469 182.640625 729.519531 183.238281 C 727.558594 183.832031 725.570312 184.328125 723.5625 184.730469 C 721.550781 185.128906 719.523438 185.429688 717.484375 185.628906 C 715.445312 185.832031 713.398438 185.933594 711.351562 185.933594 C 709.300781 185.933594 707.253906 185.832031 705.214844 185.628906 C 703.175781 185.429688 701.148438 185.128906 699.140625 184.730469 C 697.128906 184.328125 695.144531 183.832031 693.179688 183.238281 C 691.21875 182.640625 689.292969 181.953125 687.398438 181.167969 C 685.503906 180.382812 683.652344 179.507812 681.84375 178.542969 C 680.039062 177.574219 678.28125 176.523438 676.578125 175.382812 C 674.871094 174.246094 673.226562 173.023438 671.644531 171.722656 C 670.058594 170.425781 668.542969 169.050781 667.09375 167.597656 C 665.640625 166.148438 664.265625 164.632812 662.96875 163.046875 C 661.667969 161.464844 660.445312 159.820312 659.308594 158.113281 C 658.167969 156.410156 657.117188 154.652344 656.148438 152.847656 C 655.183594 151.039062 654.308594 149.1875 653.523438 147.292969 C 652.738281 145.398438 652.050781 143.472656 651.453125 141.511719 C 650.859375 139.546875 650.363281 137.5625 649.960938 135.550781 C 649.5625 133.542969 649.261719 131.515625 649.0625 129.476562 C 648.859375 127.4375 648.757812 125.390625 648.757812 123.339844 C 648.757812 121.289062 648.859375 119.246094 649.0625 117.207031 C 649.261719 115.164062 649.5625 113.140625 649.960938 111.128906 C 650.363281 109.121094 650.859375 107.132812 651.453125 105.171875 C 652.050781 103.210938 652.738281 101.28125 653.523438 99.386719 C 654.308594 97.496094 655.183594 95.644531 656.148438 93.835938 C 657.117188 92.027344 658.167969 90.273438 659.308594 88.566406 C 660.445312 86.863281 661.667969 85.21875 662.96875 83.632812 C 664.265625 82.050781 665.640625 80.53125 667.09375 79.082031 C 668.542969 77.632812 670.058594 76.257812 671.644531 74.957031 C 673.226562 73.65625 674.871094 72.4375 676.578125 71.296875 C 678.28125 70.160156 680.039062 69.105469 681.84375 68.140625 C 683.652344 67.175781 685.503906 66.300781 687.398438 65.515625 C 689.292969 64.730469 691.21875 64.039062 693.179688 63.445312 C 695.144531 62.851562 697.128906 62.351562 699.140625 61.953125 C 701.148438 61.554688 703.175781 61.253906 705.214844 61.050781 C 707.253906 60.851562 709.300781 60.75 711.351562 60.75 C 713.398438 60.75 715.445312 60.851562 717.484375 61.050781 C 719.523438 61.253906 721.550781 61.554688 723.5625 61.953125 C 725.570312 62.351562 727.558594 62.851562 729.519531 63.445312 C 731.480469 64.039062 733.410156 64.730469 735.304688 65.515625 C 737.195312 66.300781 739.046875 67.175781 740.855469 68.140625 C 742.664062 69.105469 744.417969 70.160156 746.125 71.296875 C 747.828125 72.4375 749.472656 73.65625 751.058594 74.957031 C 752.640625 76.257812 754.160156 77.632812 755.609375 79.082031 C 757.058594 80.53125 758.433594 82.050781 759.734375 83.632812 C 761.035156 85.21875 762.253906 86.863281 763.394531 88.566406 C 764.53125 90.273438 765.585938 92.027344 766.550781 93.835938 C 767.515625 95.644531 768.390625 97.496094 769.175781 99.386719 C 769.960938 101.28125 770.652344 103.210938 771.246094 105.171875 C 771.839844 107.132812 772.339844 109.121094 772.738281 111.128906 C 773.136719 113.140625 773.4375 115.164062 773.640625 117.207031 C 773.839844 119.246094 773.941406 121.289062 773.941406 123.339844 Z M 773.941406 123.339844 " fill-opacity="1" fill-rule="nonzero"/></g><path fill="#ffffff" d="M 636.242188 311.113281 C 636.242188 313.164062 636.140625 315.207031 635.941406 317.25 C 635.738281 319.289062 635.4375 321.3125 635.039062 323.324219 C 634.636719 325.335938 634.140625 327.320312 633.546875 329.28125 C 632.949219 331.246094 632.261719 333.171875 631.476562 335.066406 C 630.691406 336.960938 629.816406 338.8125 628.851562 340.617188 C 627.882812 342.425781 626.832031 344.183594 625.691406 345.886719 C 624.554688 347.589844 623.335938 349.234375 622.035156 350.820312 C 620.734375 352.40625 619.359375 353.921875 617.910156 355.371094 C 616.460938 356.820312 614.941406 358.195312 613.359375 359.496094 C 611.773438 360.796875 610.128906 362.015625 608.425781 363.15625 C 606.71875 364.292969 604.964844 365.347656 603.15625 366.3125 C 601.347656 367.28125 599.496094 368.15625 597.601562 368.941406 C 595.707031 369.722656 593.78125 370.414062 591.820312 371.007812 C 589.859375 371.605469 587.871094 372.101562 585.859375 372.5 C 583.851562 372.902344 581.824219 373.203125 579.785156 373.402344 C 577.746094 373.605469 575.699219 373.703125 573.648438 373.703125 C 571.601562 373.703125 569.554688 373.605469 567.515625 373.402344 C 565.476562 373.203125 563.449219 372.902344 561.441406 372.5 C 559.429688 372.101562 557.441406 371.605469 555.480469 371.007812 C 553.519531 370.414062 551.589844 369.722656 549.699219 368.941406 C 547.804688 368.15625 545.953125 367.28125 544.144531 366.3125 C 542.335938 365.347656 540.582031 364.292969 538.875 363.15625 C 537.171875 362.015625 535.527344 360.796875 533.941406 359.496094 C 532.359375 358.195312 530.839844 356.820312 529.390625 355.371094 C 527.941406 353.921875 526.566406 352.40625 525.265625 350.820312 C 523.964844 349.234375 522.746094 347.589844 521.609375 345.886719 C 520.46875 344.183594 519.417969 342.425781 518.449219 340.617188 C 517.484375 338.8125 516.609375 336.960938 515.824219 335.066406 C 515.039062 333.171875 514.351562 331.246094 513.753906 329.28125 C 513.160156 327.320312 512.660156 325.335938 512.261719 323.324219 C 511.863281 321.3125 511.5625 319.289062 511.359375 317.25 C 511.160156 315.207031 511.058594 313.164062 511.058594 311.113281 C 511.058594 309.0625 511.160156 307.019531 511.359375 304.980469 C 511.5625 302.9375 511.863281 300.914062 512.261719 298.902344 C 512.660156 296.890625 513.160156 294.90625 513.753906 292.945312 C 514.351562 290.984375 515.039062 289.054688 515.824219 287.160156 C 516.609375 285.265625 517.484375 283.417969 518.449219 281.609375 C 519.417969 279.800781 520.46875 278.042969 521.609375 276.339844 C 522.746094 274.636719 523.964844 272.992188 525.265625 271.40625 C 526.566406 269.820312 527.941406 268.304688 529.390625 266.855469 C 530.839844 265.40625 532.359375 264.03125 533.941406 262.730469 C 535.527344 261.429688 537.171875 260.210938 538.875 259.070312 C 540.582031 257.933594 542.335938 256.878906 544.144531 255.914062 C 545.953125 254.945312 547.804688 254.070312 549.699219 253.289062 C 551.589844 252.503906 553.519531 251.8125 555.480469 251.21875 C 557.441406 250.621094 559.429688 250.125 561.441406 249.726562 C 563.449219 249.324219 565.476562 249.023438 567.515625 248.824219 C 569.554688 248.625 571.601562 248.523438 573.648438 248.523438 C 575.699219 248.523438 577.746094 248.625 579.785156 248.824219 C 581.824219 249.023438 583.851562 249.324219 585.859375 249.726562 C 587.871094 250.125 589.859375 250.621094 591.820312 251.21875 C 593.78125 251.8125 595.707031 252.503906 597.601562 253.289062 C 599.496094 254.070312 601.347656 254.945312 603.15625 255.914062 C 604.964844 256.878906 606.71875 257.933594 608.425781 259.070312 C 610.128906 260.210938 611.773438 261.429688 613.359375 262.730469 C 614.941406 264.03125 616.460938 265.40625 617.910156 266.855469 C 619.359375 268.304688 620.734375 269.820312 622.035156 271.40625 C 623.335938 272.992188 624.554688 274.636719 625.691406 276.339844 C 626.832031 278.042969 627.882812 279.800781 628.851562 281.609375 C 629.816406 283.417969 630.691406 285.265625 631.476562 287.160156 C 632.261719 289.054688 632.949219 290.984375 633.546875 292.945312 C 634.140625 294.90625 634.636719 296.890625 635.039062 298.902344 C 635.4375 300.914062 635.738281 302.9375 635.941406 304.980469 C 636.140625 307.019531 636.242188 309.0625 636.242188 311.113281 Z M 636.242188 311.113281 " fill-opacity="1" fill-rule="nonzero"/><g clip-path="url(#9a86a73779)"><path fill="#ffffff" d="M 911.640625 311.113281 C 911.640625 313.164062 911.539062 315.207031 911.339844 317.25 C 911.140625 319.289062 910.839844 321.3125 910.4375 323.324219 C 910.039062 325.335938 909.542969 327.320312 908.945312 329.28125 C 908.351562 331.246094 907.660156 333.171875 906.875 335.066406 C 906.09375 336.960938 905.21875 338.8125 904.25 340.617188 C 903.285156 342.425781 902.230469 344.183594 901.09375 345.886719 C 899.953125 347.589844 898.734375 349.234375 897.433594 350.820312 C 896.132812 352.40625 894.757812 353.921875 893.308594 355.371094 C 891.859375 356.820312 890.34375 358.195312 888.757812 359.496094 C 887.171875 360.796875 885.527344 362.015625 883.824219 363.15625 C 882.121094 364.292969 880.363281 365.347656 878.554688 366.3125 C 876.746094 367.28125 874.898438 368.15625 873.003906 368.941406 C 871.109375 369.722656 869.179688 370.414062 867.21875 371.007812 C 865.257812 371.605469 863.273438 372.101562 861.261719 372.5 C 859.25 372.902344 857.226562 373.203125 855.183594 373.402344 C 853.144531 373.605469 851.101562 373.703125 849.050781 373.703125 C 847 373.703125 844.957031 373.605469 842.914062 373.402344 C 840.875 373.203125 838.851562 372.902344 836.839844 372.5 C 834.828125 372.101562 832.84375 371.605469 830.882812 371.007812 C 828.917969 370.414062 826.992188 369.722656 825.097656 368.941406 C 823.203125 368.15625 821.351562 367.28125 819.546875 366.3125 C 817.738281 365.347656 815.980469 364.292969 814.277344 363.15625 C 812.570312 362.015625 810.925781 360.796875 809.34375 359.496094 C 807.757812 358.195312 806.242188 356.820312 804.792969 355.371094 C 803.34375 353.921875 801.96875 352.40625 800.667969 350.820312 C 799.367188 349.234375 798.148438 347.589844 797.007812 345.886719 C 795.867188 344.183594 794.816406 342.425781 793.851562 340.617188 C 792.882812 338.8125 792.007812 336.960938 791.222656 335.066406 C 790.4375 333.171875 789.75 331.246094 789.15625 329.28125 C 788.558594 327.320312 788.0625 325.335938 787.660156 323.324219 C 787.261719 321.3125 786.960938 319.289062 786.761719 317.25 C 786.558594 315.207031 786.460938 313.164062 786.460938 311.113281 C 786.460938 309.0625 786.558594 307.019531 786.761719 304.980469 C 786.960938 302.9375 787.261719 300.914062 787.660156 298.902344 C 788.0625 296.890625 788.558594 294.90625 789.15625 292.945312 C 789.75 290.984375 790.4375 289.054688 791.222656 287.160156 C 792.007812 285.265625 792.882812 283.417969 793.851562 281.609375 C 794.816406 279.800781 795.867188 278.042969 797.007812 276.339844 C 798.148438 274.636719 799.367188 272.992188 800.667969 271.40625 C 801.96875 269.820312 803.34375 268.304688 804.792969 266.855469 C 806.242188 265.40625 807.757812 264.03125 809.34375 262.730469 C 810.925781 261.429688 812.570312 260.210938 814.277344 259.070312 C 815.980469 257.933594 817.738281 256.878906 819.546875 255.914062 C 821.351562 254.945312 823.203125 254.070312 825.097656 253.289062 C 826.992188 252.503906 828.917969 251.8125 830.882812 251.21875 C 832.84375 250.621094 834.828125 250.125 836.839844 249.726562 C 838.851562 249.324219 840.875 249.023438 842.914062 248.824219 C 844.957031 248.625 847 248.523438 849.050781 248.523438 C 851.101562 248.523438 853.144531 248.625 855.183594 248.824219 C 857.226562 249.023438 859.25 249.324219 861.261719 249.726562 C 863.273438 250.125 865.257812 250.621094 867.21875 251.21875 C 869.179688 251.8125 871.109375 252.503906 873.003906 253.289062 C 874.898438 254.070312 876.746094 254.945312 878.554688 255.914062 C 880.363281 256.878906 882.121094 257.933594 883.824219 259.070312 C 885.527344 260.210938 887.171875 261.429688 888.757812 262.730469 C 890.34375 264.03125 891.859375 265.40625 893.308594 266.855469 C 894.757812 268.304688 896.132812 269.820312 897.433594 271.40625 C 898.734375 272.992188 899.953125 274.636719 901.09375 276.339844 C 902.230469 278.042969 903.285156 279.800781 904.25 281.609375 C 905.21875 283.417969 906.09375 285.265625 906.875 287.160156 C 907.660156 289.054688 908.351562 290.984375 908.945312 292.945312 C 909.542969 294.90625 910.039062 296.890625 910.4375 298.902344 C 910.839844 300.914062 911.140625 302.9375 911.339844 304.980469 C 911.539062 307.019531 911.640625 309.0625 911.640625 311.113281 Z M 911.640625 311.113281 " fill-opacity="1" fill-rule="nonzero"/></g><g clip-path="url(#dac9b42764)"><path fill="#ffffff" d="M 498.542969 498.886719 C 498.542969 500.9375 498.441406 502.980469 498.238281 505.019531 C 498.039062 507.0625 497.738281 509.085938 497.339844 511.097656 C 496.9375 513.109375 496.441406 515.09375 495.847656 517.054688 C 495.25 519.015625 494.5625 520.945312 493.777344 522.839844 C 492.992188 524.734375 492.117188 526.582031 491.152344 528.390625 C 490.183594 530.199219 489.132812 531.957031 487.992188 533.660156 C 486.855469 535.363281 485.632812 537.007812 484.332031 538.59375 C 483.035156 540.179688 481.660156 541.695312 480.207031 543.144531 C 478.757812 544.59375 477.242188 545.96875 475.65625 547.269531 C 474.074219 548.570312 472.429688 549.789062 470.722656 550.929688 C 469.019531 552.066406 467.261719 553.121094 465.457031 554.085938 C 463.648438 555.054688 461.796875 555.929688 459.902344 556.710938 C 458.007812 557.496094 456.082031 558.1875 454.121094 558.78125 C 452.15625 559.378906 450.171875 559.875 448.160156 560.273438 C 446.152344 560.675781 444.125 560.976562 442.085938 561.175781 C 440.046875 561.375 438 561.476562 435.949219 561.476562 C 433.902344 561.476562 431.855469 561.375 429.816406 561.175781 C 427.773438 560.976562 425.75 560.675781 423.738281 560.273438 C 421.730469 559.875 419.742188 559.378906 417.78125 558.78125 C 415.820312 558.1875 413.890625 557.496094 411.996094 556.710938 C 410.105469 555.929688 408.253906 555.054688 406.445312 554.085938 C 404.636719 553.121094 402.882812 552.066406 401.175781 550.929688 C 399.472656 549.789062 397.828125 548.570312 396.242188 547.269531 C 394.660156 545.96875 393.140625 544.59375 391.691406 543.144531 C 390.242188 541.695312 388.867188 540.179688 387.566406 538.59375 C 386.265625 537.007812 385.046875 535.363281 383.90625 533.660156 C 382.769531 531.957031 381.714844 530.199219 380.75 528.390625 C 379.785156 526.582031 378.910156 524.734375 378.125 522.839844 C 377.339844 520.945312 376.648438 519.015625 376.054688 517.054688 C 375.460938 515.09375 374.960938 513.109375 374.5625 511.097656 C 374.164062 509.085938 373.863281 507.0625 373.660156 505.019531 C 373.460938 502.980469 373.359375 500.9375 373.359375 498.886719 C 373.359375 496.835938 373.460938 494.792969 373.660156 492.75 C 373.863281 490.710938 374.164062 488.6875 374.5625 486.675781 C 374.960938 484.664062 375.460938 482.679688 376.054688 480.71875 C 376.648438 478.753906 377.339844 476.828125 378.125 474.933594 C 378.910156 473.039062 379.785156 471.1875 380.75 469.382812 C 381.714844 467.574219 382.769531 465.816406 383.90625 464.113281 C 385.046875 462.40625 386.265625 460.765625 387.566406 459.179688 C 388.867188 457.59375 390.242188 456.078125 391.691406 454.628906 C 393.140625 453.179688 394.660156 451.804688 396.242188 450.503906 C 397.828125 449.203125 399.472656 447.984375 401.175781 446.84375 C 402.882812 445.703125 404.636719 444.652344 406.445312 443.6875 C 408.253906 442.71875 410.105469 441.84375 411.996094 441.058594 C 413.890625 440.273438 415.820312 439.585938 417.78125 438.992188 C 419.742188 438.394531 421.730469 437.898438 423.738281 437.496094 C 425.75 437.097656 427.773438 436.796875 429.816406 436.597656 C 431.855469 436.394531 433.902344 436.296875 435.949219 436.296875 C 438 436.296875 440.046875 436.394531 442.085938 436.597656 C 444.125 436.796875 446.152344 437.097656 448.160156 437.496094 C 450.171875 437.898438 452.15625 438.394531 454.121094 438.992188 C 456.082031 439.585938 458.007812 440.273438 459.902344 441.058594 C 461.796875 441.84375 463.648438 442.71875 465.457031 443.6875 C 467.261719 444.652344 469.019531 445.703125 470.722656 446.84375 C 472.429688 447.984375 474.074219 449.203125 475.65625 450.503906 C 477.242188 451.804688 478.757812 453.179688 480.207031 454.628906 C 481.660156 456.078125 483.035156 457.59375 484.332031 459.179688 C 485.632812 460.765625 486.855469 462.40625 487.992188 464.113281 C 489.132812 465.816406 490.183594 467.574219 491.152344 469.382812 C 492.117188 471.1875 492.992188 473.039062 493.777344 474.933594 C 494.5625 476.828125 495.25 478.753906 495.847656 480.71875 C 496.441406 482.679688 496.9375 484.664062 497.339844 486.675781 C 497.738281 488.6875 498.039062 490.710938 498.238281 492.75 C 498.441406 494.792969 498.542969 496.835938 498.542969 498.886719 Z M 498.542969 498.886719 " fill-opacity="1" fill-rule="nonzero"/></g><path fill="#ffffff" d="M 773.941406 498.886719 C 773.941406 500.9375 773.839844 502.980469 773.640625 505.019531 C 773.4375 507.0625 773.136719 509.085938 772.738281 511.097656 C 772.339844 513.109375 771.839844 515.09375 771.246094 517.054688 C 770.652344 519.015625 769.960938 520.945312 769.175781 522.839844 C 768.390625 524.734375 767.515625 526.582031 766.550781 528.390625 C 765.585938 530.199219 764.53125 531.957031 763.394531 533.660156 C 762.253906 535.363281 761.035156 537.007812 759.734375 538.59375 C 758.433594 540.179688 757.058594 541.695312 755.609375 543.144531 C 754.160156 544.59375 752.640625 545.96875 751.058594 547.269531 C 749.472656 548.570312 747.828125 549.789062 746.125 550.929688 C 744.417969 552.066406 742.664062 553.121094 740.855469 554.085938 C 739.046875 555.054688 737.195312 555.929688 735.304688 556.710938 C 733.410156 557.496094 731.480469 558.1875 729.519531 558.78125 C 727.558594 559.378906 725.570312 559.875 723.5625 560.273438 C 721.550781 560.675781 719.523438 560.976562 717.484375 561.175781 C 715.445312 561.375 713.398438 561.476562 711.351562 561.476562 C 709.300781 561.476562 707.253906 561.375 705.214844 561.175781 C 703.175781 560.976562 701.148438 560.675781 699.140625 560.273438 C 697.128906 559.875 695.144531 559.378906 693.179688 558.78125 C 691.21875 558.1875 689.292969 557.496094 687.398438 556.710938 C 685.503906 555.929688 683.652344 555.054688 681.84375 554.085938 C 680.039062 553.121094 678.28125 552.066406 676.578125 550.929688 C 674.871094 549.789062 673.226562 548.570312 671.644531 547.269531 C 670.058594 545.96875 668.542969 544.59375 667.09375 543.144531 C 665.640625 541.695312 664.265625 540.179688 662.96875 538.59375 C 661.667969 537.007812 660.445312 535.363281 659.308594 533.660156 C 658.167969 531.957031 657.117188 530.199219 656.148438 528.390625 C 655.183594 526.582031 654.308594 524.734375 653.523438 522.839844 C 652.738281 520.945312 652.050781 519.015625 651.453125 517.054688 C 650.859375 515.09375 650.363281 513.109375 649.960938 511.097656 C 649.5625 509.085938 649.261719 507.0625 649.0625 505.019531 C 648.859375 502.980469 648.757812 500.9375 648.757812 498.886719 C 648.757812 496.835938 648.859375 494.792969 649.0625 492.75 C 649.261719 490.710938 649.5625 488.6875 649.960938 486.675781 C 650.363281 484.664062 650.859375 482.679688 651.453125 480.71875 C 652.050781 478.753906 652.738281 476.828125 653.523438 474.933594 C 654.308594 473.039062 655.183594 471.1875 656.148438 469.382812 C 657.117188 467.574219 658.167969 465.816406 659.308594 464.113281 C 660.445312 462.40625 661.667969 460.765625 662.96875 459.179688 C 664.265625 457.59375 665.640625 456.078125 667.09375 454.628906 C 668.542969 453.179688 670.058594 451.804688 671.644531 450.503906 C 673.226562 449.203125 674.871094 447.984375 676.578125 446.84375 C 678.28125 445.703125 680.039062 444.652344 681.84375 443.6875 C 683.652344 442.71875 685.503906 441.84375 687.398438 441.058594 C 689.292969 440.273438 691.21875 439.585938 693.179688 438.992188 C 695.144531 438.394531 697.128906 437.898438 699.140625 437.496094 C 701.148438 437.097656 703.175781 436.796875 705.214844 436.597656 C 707.253906 436.394531 709.300781 436.296875 711.351562 436.296875 C 713.398438 436.296875 715.445312 436.394531 717.484375 436.597656 C 719.523438 436.796875 721.550781 437.097656 723.5625 437.496094 C 725.570312 437.898438 727.558594 438.394531 729.519531 438.992188 C 731.480469 439.585938 733.410156 440.273438 735.304688 441.058594 C 737.195312 441.84375 739.046875 442.71875 740.855469 443.6875 C 742.664062 444.652344 744.417969 445.703125 746.125 446.84375 C 747.828125 447.984375 749.472656 449.203125 751.058594 450.503906 C 752.640625 451.804688 754.160156 453.179688 755.609375 454.628906 C 757.058594 456.078125 758.433594 457.59375 759.734375 459.179688 C 761.035156 460.765625 762.253906 462.40625 763.394531 464.113281 C 764.53125 465.816406 765.585938 467.574219 766.550781 469.382812 C 767.515625 471.1875 768.390625 473.039062 769.175781 474.933594 C 769.960938 476.828125 770.652344 478.753906 771.246094 480.71875 C 771.839844 482.679688 772.339844 484.664062 772.738281 486.675781 C 773.136719 488.6875 773.4375 490.710938 773.640625 492.75 C 773.839844 494.792969 773.941406 496.835938 773.941406 498.886719 Z M 773.941406 498.886719 " fill-opacity="1" fill-rule="nonzero"/><g clip-path="url(#17ee2b07b6)"><path fill="#ffffff" d="M 636.242188 686.660156 C 636.242188 688.707031 636.140625 690.753906 635.941406 692.792969 C 635.738281 694.835938 635.4375 696.859375 635.039062 698.871094 C 634.636719 700.878906 634.140625 702.867188 633.546875 704.828125 C 632.949219 706.789062 632.261719 708.71875 631.476562 710.613281 C 630.691406 712.503906 629.816406 714.355469 628.851562 716.164062 C 627.882812 717.972656 626.832031 719.726562 625.691406 721.433594 C 624.554688 723.136719 623.335938 724.78125 622.035156 726.367188 C 620.734375 727.949219 619.359375 729.46875 617.910156 730.917969 C 616.460938 732.367188 614.941406 733.742188 613.359375 735.042969 C 611.773438 736.34375 610.128906 737.5625 608.425781 738.703125 C 606.71875 739.839844 604.964844 740.894531 603.15625 741.859375 C 601.347656 742.824219 599.496094 743.699219 597.601562 744.484375 C 595.707031 745.269531 593.78125 745.960938 591.820312 746.554688 C 589.859375 747.148438 587.871094 747.648438 585.859375 748.046875 C 583.851562 748.445312 581.824219 748.746094 579.785156 748.949219 C 577.746094 749.148438 575.699219 749.25 573.648438 749.25 C 571.601562 749.25 569.554688 749.148438 567.515625 748.949219 C 565.476562 748.746094 563.449219 748.445312 561.441406 748.046875 C 559.429688 747.648438 557.441406 747.148438 555.480469 746.554688 C 553.519531 745.960938 551.589844 745.269531 549.699219 744.484375 C 547.804688 743.699219 545.953125 742.824219 544.144531 741.859375 C 542.335938 740.894531 540.582031 739.839844 538.875 738.703125 C 537.171875 737.5625 535.527344 736.34375 533.941406 735.042969 C 532.359375 733.742188 530.839844 732.367188 529.390625 730.917969 C 527.941406 729.46875 526.566406 727.949219 525.265625 726.367188 C 523.964844 724.78125 522.746094 723.136719 521.609375 721.433594 C 520.46875 719.726562 519.417969 717.972656 518.449219 716.164062 C 517.484375 714.355469 516.609375 712.503906 515.824219 710.613281 C 515.039062 708.71875 514.351562 706.789062 513.753906 704.828125 C 513.160156 702.867188 512.660156 700.878906 512.261719 698.871094 C 511.863281 696.859375 511.5625 694.835938 511.359375 692.792969 C 511.160156 690.753906 511.058594 688.707031 511.058594 686.660156 C 511.058594 684.609375 511.160156 682.5625 511.359375 680.523438 C 511.5625 678.484375 511.863281 676.457031 512.261719 674.449219 C 512.660156 672.4375 513.160156 670.453125 513.753906 668.488281 C 514.351562 666.527344 515.039062 664.601562 515.824219 662.707031 C 516.609375 660.8125 517.484375 658.960938 518.449219 657.152344 C 519.417969 655.347656 520.46875 653.589844 521.609375 651.886719 C 522.746094 650.179688 523.964844 648.535156 525.265625 646.953125 C 526.566406 645.367188 527.941406 643.851562 529.390625 642.402344 C 530.839844 640.949219 532.359375 639.574219 533.941406 638.277344 C 535.527344 636.976562 537.171875 635.753906 538.875 634.617188 C 540.582031 633.476562 542.335938 632.425781 544.144531 631.457031 C 545.953125 630.492188 547.804688 629.617188 549.699219 628.832031 C 551.589844 628.046875 553.519531 627.359375 555.480469 626.761719 C 557.441406 626.167969 559.429688 625.671875 561.441406 625.269531 C 563.449219 624.871094 565.476562 624.570312 567.515625 624.371094 C 569.554688 624.167969 571.601562 624.066406 573.648438 624.066406 C 575.699219 624.066406 577.746094 624.167969 579.785156 624.371094 C 581.824219 624.570312 583.851562 624.871094 585.859375 625.269531 C 587.871094 625.671875 589.859375 626.167969 591.820312 626.761719 C 593.78125 627.359375 595.707031 628.046875 597.601562 628.832031 C 599.496094 629.617188 601.347656 630.492188 603.15625 631.457031 C 604.964844 632.425781 606.71875 633.476562 608.425781 634.617188 C 610.128906 635.753906 611.773438 636.976562 613.359375 638.277344 C 614.941406 639.574219 616.460938 640.949219 617.910156 642.402344 C 619.359375 643.851562 620.734375 645.367188 622.035156 646.953125 C 623.335938 648.535156 624.554688 650.179688 625.691406 651.886719 C 626.832031 653.589844 627.882812 655.347656 628.851562 657.152344 C 629.816406 658.960938 630.691406 660.8125 631.476562 662.707031 C 632.261719 664.601562 632.949219 666.527344 633.546875 668.488281 C 634.140625 670.453125 634.636719 672.4375 635.039062 674.449219 C 635.4375 676.457031 635.738281 678.484375 635.941406 680.523438 C 636.140625 682.5625 636.242188 684.609375 636.242188 686.660156 Z M 636.242188 686.660156 " fill-opacity="1" fill-rule="nonzero"/></g><g clip-path="url(#759f8d88d2)"><path fill="#ffffff" d="M 911.640625 686.660156 C 911.640625 688.707031 911.539062 690.753906 911.339844 692.792969 C 911.140625 694.835938 910.839844 696.859375 910.4375 698.871094 C 910.039062 700.878906 909.542969 702.867188 908.945312 704.828125 C 908.351562 706.789062 907.660156 708.71875 906.875 710.613281 C 906.09375 712.503906 905.21875 714.355469 904.25 716.164062 C 903.285156 717.972656 902.230469 719.726562 901.09375 721.433594 C 899.953125 723.136719 898.734375 724.78125 897.433594 726.367188 C 896.132812 727.949219 894.757812 729.46875 893.308594 730.917969 C 891.859375 732.367188 890.34375 733.742188 888.757812 735.042969 C 887.171875 736.34375 885.527344 737.5625 883.824219 738.703125 C 882.121094 739.839844 880.363281 740.894531 878.554688 741.859375 C 876.746094 742.824219 874.898438 743.699219 873.003906 744.484375 C 871.109375 745.269531 869.179688 745.960938 867.21875 746.554688 C 865.257812 747.148438 863.273438 747.648438 861.261719 748.046875 C 859.25 748.445312 857.226562 748.746094 855.183594 748.949219 C 853.144531 749.148438 851.101562 749.25 849.050781 749.25 C 847 749.25 844.957031 749.148438 842.914062 748.949219 C 840.875 748.746094 838.851562 748.445312 836.839844 748.046875 C 834.828125 747.648438 832.84375 747.148438 830.882812 746.554688 C 828.917969 745.960938 826.992188 745.269531 825.097656 744.484375 C 823.203125 743.699219 821.351562 742.824219 819.546875 741.859375 C 817.738281 740.894531 815.980469 739.839844 814.277344 738.703125 C 812.570312 737.5625 810.925781 736.34375 809.34375 735.042969 C 807.757812 733.742188 806.242188 732.367188 804.792969 730.917969 C 803.34375 729.46875 801.96875 727.949219 800.667969 726.367188 C 799.367188 724.78125 798.148438 723.136719 797.007812 721.433594 C 795.867188 719.726562 794.816406 717.972656 793.851562 716.164062 C 792.882812 714.355469 792.007812 712.503906 791.222656 710.613281 C 790.4375 708.71875 789.75 706.789062 789.15625 704.828125 C 788.558594 702.867188 788.0625 700.878906 787.660156 698.871094 C 787.261719 696.859375 786.960938 694.835938 786.761719 692.792969 C 786.558594 690.753906 786.460938 688.707031 786.460938 686.660156 C 786.460938 684.609375 786.558594 682.5625 786.761719 680.523438 C 786.960938 678.484375 787.261719 676.457031 787.660156 674.449219 C 788.0625 672.4375 788.558594 670.453125 789.15625 668.488281 C 789.75 666.527344 790.4375 664.601562 791.222656 662.707031 C 792.007812 660.8125 792.882812 658.960938 793.851562 657.152344 C 794.816406 655.347656 795.867188 653.589844 797.007812 651.886719 C 798.148438 650.179688 799.367188 648.535156 800.667969 646.953125 C 801.96875 645.367188 803.34375 643.851562 804.792969 642.402344 C 806.242188 640.949219 807.757812 639.574219 809.34375 638.277344 C 810.925781 636.976562 812.570312 635.753906 814.277344 634.617188 C 815.980469 633.476562 817.738281 632.425781 819.546875 631.457031 C 821.351562 630.492188 823.203125 629.617188 825.097656 628.832031 C 826.992188 628.046875 828.917969 627.359375 830.882812 626.761719 C 832.84375 626.167969 834.828125 625.671875 836.839844 625.269531 C 838.851562 624.871094 840.875 624.570312 842.914062 624.371094 C 844.957031 624.167969 847 624.066406 849.050781 624.066406 C 851.101562 624.066406 853.144531 624.167969 855.183594 624.371094 C 857.226562 624.570312 859.25 624.871094 861.261719 625.269531 C 863.273438 625.671875 865.257812 626.167969 867.21875 626.761719 C 869.179688 627.359375 871.109375 628.046875 873.003906 628.832031 C 874.898438 629.617188 876.746094 630.492188 878.554688 631.457031 C 880.363281 632.425781 882.121094 633.476562 883.824219 634.617188 C 885.527344 635.753906 887.171875 636.976562 888.757812 638.277344 C 890.34375 639.574219 891.859375 640.949219 893.308594 642.402344 C 894.757812 643.851562 896.132812 645.367188 897.433594 646.953125 C 898.734375 648.535156 899.953125 650.179688 901.09375 651.886719 C 902.230469 653.589844 903.285156 655.347656 904.25 657.152344 C 905.21875 658.960938 906.09375 660.8125 906.875 662.707031 C 907.660156 664.601562 908.351562 666.527344 908.945312 668.488281 C 909.542969 670.453125 910.039062 672.4375 910.4375 674.449219 C 910.839844 676.457031 911.140625 678.484375 911.339844 680.523438 C 911.539062 682.5625 911.640625 684.609375 911.640625 686.660156 Z M 911.640625 686.660156 " fill-opacity="1" fill-rule="nonzero"/></g><g clip-path="url(#16e2ccb4ef)"><g clip-path="url(#2166fd5b83)"><g clip-path="url(#917e019508)"><path fill="#ffffff" d="M 880.703125 431.691406 C 896.972656 420.492188 916.625 416.3125 936.039062 419.898438 C 955.464844 423.484375 972.324219 434.410156 983.527344 450.683594 C 994.730469 466.949219 998.917969 486.613281 995.332031 506.039062 C 992.210938 522.925781 983.519531 537.859375 970.617188 548.839844 L 982.0625 565.46875 L 985.847656 562.863281 L 1020.566406 613.292969 L 1000.375 627.191406 L 965.671875 576.761719 L 969.445312 574.152344 L 958.003906 557.523438 C 943.136719 565.664062 926.082031 568.433594 909.199219 565.316406 C 889.773438 561.726562 872.910156 550.792969 861.710938 534.515625 C 838.59375 500.929688 847.113281 454.804688 880.703125 431.691406 Z M 871.011719 528.105469 C 880.503906 541.894531 894.785156 551.152344 911.25 554.195312 C 927.707031 557.234375 944.355469 553.683594 958.144531 544.199219 C 971.917969 534.71875 981.183594 520.4375 984.222656 503.980469 C 987.261719 487.527344 983.714844 470.867188 974.226562 457.089844 C 964.75 443.300781 950.46875 434.042969 934 431.003906 C 917.542969 427.960938 900.898438 431.515625 887.105469 441 C 858.65625 460.589844 851.4375 499.667969 871.011719 528.105469 Z M 871.011719 528.105469 " fill-opacity="1" fill-rule="nonzero"/></g></g></g><g clip-path="url(#6fab549292)"><g clip-path="url(#37ae6ad1a8)"><g clip-path="url(#418f1d1727)"><path fill="#ffffff" d="M 932.46875 439.285156 C 946.714844 441.917969 959.066406 449.945312 967.28125 461.863281 C 968.515625 463.660156 968.058594 466.132812 966.265625 467.367188 C 964.46875 468.605469 961.996094 468.148438 960.757812 466.351562 C 953.746094 456.164062 943.1875 449.324219 931.03125 447.078125 C 918.859375 444.832031 906.558594 447.449219 896.363281 454.457031 C 895.472656 455.085938 894.402344 455.273438 893.398438 455.085938 C 892.414062 454.90625 891.484375 454.347656 890.855469 453.441406 C 889.617188 451.644531 890.074219 449.171875 891.871094 447.9375 C 903.808594 439.738281 918.226562 436.65625 932.46875 439.285156 Z M 932.46875 439.285156 " fill-opacity="1" fill-rule="nonzero"/></g></g></g><g clip-path="url(#b44d323cd0)"><g clip-path="url(#9eeec99f7d)"><g clip-path="url(#e448428979)"><path fill="#ffffff" d="M 1028.703125 625.136719 C 1032.253906 630.273438 1030.949219 637.320312 1025.804688 640.847656 L 1024.234375 641.9375 C 1019.085938 645.46875 1012.054688 644.167969 1008.511719 639.03125 L 1003.742188 632.097656 L 1023.933594 618.203125 Z M 1028.703125 625.136719 " fill-opacity="1" fill-rule="nonzero"/></g></g></g></svg>