<svg xmlns="http://www.w3.org/2000/svg" xmlns:xlink="http://www.w3.org/1999/xlink" width="500" zoomAndPan="magnify" viewBox="0 0 375 374.999991" height="500" preserveAspectRatio="xMidYMid meet" version="1.0"><defs><clipPath id="f5387f9106"><path d="M 299.660156 0 L 374.65625 0 L 374.65625 261 L 299.660156 261 Z M 299.660156 0 " clip-rule="nonzero"/></clipPath></defs><path fill="#ffffff" d="M 69.785156 112.0625 L 47.53125 112.0625 C 43.828125 112.0625 40.089844 115.765625 40.089844 119.46875 L 40.089844 278.949219 L 10.429688 278.949219 C 4.875 278.949219 1.171875 286.355469 4.875 291.910156 L 64.226562 369.78125 C 67.933594 375.335938 77.191406 371.632812 77.191406 364.226562 L 77.191406 119.46875 C 77.191406 115.765625 73.488281 112.0625 69.785156 112.0625 " fill-opacity="1" fill-rule="nonzero"/><g clip-path="url(#f5387f9106)"><path fill="#ffffff" d="M 371.976562 80.550781 L 312.65625 2.679688 C 308.953125 -2.875 299.695312 0.828125 299.695312 8.234375 L 299.695312 252.992188 C 299.695312 256.695312 303.398438 260.398438 307.101562 260.398438 L 329.355469 260.398438 C 333.058594 260.398438 336.761719 256.695312 336.761719 252.992188 L 336.761719 93.511719 L 366.421875 93.511719 C 373.828125 93.511719 377.566406 86.105469 371.976562 80.550781 " fill-opacity="1" fill-rule="nonzero"/></g><path fill="#ffffff" d="M 255.1875 278.949219 L 121.699219 278.949219 C 117.960938 278.949219 114.257812 282.652344 114.257812 286.355469 L 114.257812 308.609375 C 114.257812 312.3125 117.960938 316.015625 121.699219 316.015625 L 255.1875 316.015625 C 258.890625 316.015625 262.59375 312.3125 262.59375 308.609375 L 262.59375 286.355469 C 262.59375 282.652344 258.890625 278.949219 255.1875 278.949219 " fill-opacity="1" fill-rule="nonzero"/><path fill="#ffffff" d="M 255.1875 204.78125 L 121.699219 204.78125 C 117.960938 204.78125 114.257812 208.484375 114.257812 212.1875 L 114.257812 234.441406 C 114.257812 238.144531 117.960938 241.847656 121.699219 241.847656 L 255.1875 241.847656 C 258.890625 241.847656 262.59375 238.144531 262.59375 234.441406 L 262.59375 212.1875 C 262.59375 208.484375 258.890625 204.78125 255.1875 204.78125 " fill-opacity="1" fill-rule="nonzero"/><path fill="#ffffff" d="M 255.1875 130.613281 L 121.699219 130.613281 C 117.960938 130.613281 114.257812 134.316406 114.257812 138.019531 L 114.257812 160.273438 C 114.257812 163.976562 117.960938 167.679688 121.699219 167.679688 L 255.1875 167.679688 C 258.890625 167.679688 262.59375 163.976562 262.59375 160.273438 L 262.59375 138.019531 C 262.59375 134.316406 258.890625 130.613281 255.1875 130.613281 " fill-opacity="1" fill-rule="nonzero"/><path fill="#ffffff" d="M 255.1875 56.445312 L 121.699219 56.445312 C 117.960938 56.445312 114.257812 60.148438 114.257812 63.851562 L 114.257812 86.105469 C 114.257812 89.808594 117.960938 93.511719 121.699219 93.511719 L 255.1875 93.511719 C 258.890625 93.511719 262.59375 89.808594 262.59375 86.105469 L 262.59375 63.851562 C 262.59375 60.148438 258.890625 56.445312 255.1875 56.445312 " fill-opacity="1" fill-rule="nonzero"/></svg>