<svg xmlns="http://www.w3.org/2000/svg" xmlns:xlink="http://www.w3.org/1999/xlink" width="1920" zoomAndPan="magnify" viewBox="0 0 1440 809.999993" height="1080" preserveAspectRatio="xMidYMid meet" version="1.0"><defs><clipPath id="82048af6ff"><path d="M 885.617188 128.128906 L 996.355469 128.128906 L 996.355469 513 L 885.617188 513 Z M 885.617188 128.128906 " clip-rule="nonzero"/></clipPath></defs><path fill="#ffffff" d="M 546.171875 293.601562 L 513.3125 293.601562 C 507.84375 293.601562 502.324219 299.070312 502.324219 304.539062 L 502.324219 540.03125 L 458.527344 540.03125 C 450.324219 540.03125 444.855469 550.96875 450.324219 559.171875 L 537.96875 674.15625 C 543.4375 682.359375 557.109375 676.890625 557.109375 665.953125 L 557.109375 304.539062 C 557.109375 299.070312 551.640625 293.601562 546.171875 293.601562 " fill-opacity="1" fill-rule="nonzero"/><g clip-path="url(#82048af6ff)"><path fill="#ffffff" d="M 992.398438 247.070312 L 904.804688 132.082031 C 899.335938 123.878906 885.664062 129.347656 885.664062 140.285156 L 885.664062 501.703125 C 885.664062 507.171875 891.132812 512.640625 896.601562 512.640625 L 929.460938 512.640625 C 934.929688 512.640625 940.398438 507.171875 940.398438 501.703125 L 940.398438 266.210938 L 984.195312 266.210938 C 995.132812 266.210938 1000.652344 255.273438 992.398438 247.070312 " fill-opacity="1" fill-rule="nonzero"/></g><path fill="#ffffff" d="M 819.945312 540.03125 L 622.832031 540.03125 C 617.3125 540.03125 611.84375 545.5 611.84375 550.96875 L 611.84375 583.828125 C 611.84375 589.296875 617.3125 594.765625 622.832031 594.765625 L 819.945312 594.765625 C 825.414062 594.765625 830.882812 589.296875 830.882812 583.828125 L 830.882812 550.96875 C 830.882812 545.5 825.414062 540.03125 819.945312 540.03125 " fill-opacity="1" fill-rule="nonzero"/><path fill="#ffffff" d="M 819.945312 430.511719 L 622.832031 430.511719 C 617.3125 430.511719 611.84375 435.980469 611.84375 441.449219 L 611.84375 474.308594 C 611.84375 479.777344 617.3125 485.246094 622.832031 485.246094 L 819.945312 485.246094 C 825.414062 485.246094 830.882812 479.777344 830.882812 474.308594 L 830.882812 441.449219 C 830.882812 435.980469 825.414062 430.511719 819.945312 430.511719 " fill-opacity="1" fill-rule="nonzero"/><path fill="#ffffff" d="M 819.945312 320.992188 L 622.832031 320.992188 C 617.3125 320.992188 611.84375 326.460938 611.84375 331.929688 L 611.84375 364.792969 C 611.84375 370.261719 617.3125 375.730469 622.832031 375.730469 L 819.945312 375.730469 C 825.414062 375.730469 830.882812 370.261719 830.882812 364.792969 L 830.882812 331.929688 C 830.882812 326.460938 825.414062 320.992188 819.945312 320.992188 " fill-opacity="1" fill-rule="nonzero"/><path fill="#ffffff" d="M 819.945312 211.476562 L 622.832031 211.476562 C 617.3125 211.476562 611.84375 216.945312 611.84375 222.414062 L 611.84375 255.273438 C 611.84375 260.742188 617.3125 266.210938 622.832031 266.210938 L 819.945312 266.210938 C 825.414062 266.210938 830.882812 260.742188 830.882812 255.273438 L 830.882812 222.414062 C 830.882812 216.945312 825.414062 211.476562 819.945312 211.476562 " fill-opacity="1" fill-rule="nonzero"/></svg>